<svg width="22" height="22" viewBox="0 0 22 22" fill="none" xmlns="http://www.w3.org/2000/svg">
    <path
        d="M15.5833 5.5H10.0833C9.84022 5.5 9.60706 5.59658 9.43515 5.76849C9.26324 5.94039 9.16667 6.17355 9.16667 6.41667C9.16667 6.65978 9.26324 6.89294 9.43515 7.06485C9.60706 7.23676 9.84022 7.33333 10.0833 7.33333H11.4767L8.54333 14.6667H6.41667C6.17355 14.6667 5.94039 14.7632 5.76849 14.9352C5.59658 15.1071 5.5 15.3402 5.5 15.5833C5.5 15.8264 5.59658 16.0596 5.76849 16.2315C5.94039 16.4034 6.17355 16.5 6.41667 16.5H11.9167C12.1598 16.5 12.3929 16.4034 12.5648 16.2315C12.7368 16.0596 12.8333 15.8264 12.8333 15.5833C12.8333 15.3402 12.7368 15.1071 12.5648 14.9352C12.3929 14.7632 12.1598 14.6667 11.9167 14.6667H10.5233L13.4567 7.33333H15.5833C15.8264 7.33333 16.0596 7.23676 16.2315 7.06485C16.4034 6.89294 16.5 6.65978 16.5 6.41667C16.5 6.17355 16.4034 5.94039 16.2315 5.76849C16.0596 5.59658 15.8264 5.5 15.5833 5.5Z"
        fill="black" />
</svg>