<svg width="35" height="36" viewBox="0 0 35 36" fill="none" xmlns="http://www.w3.org/2000/svg">
    <g clip-path="url(#clip0_692_1770)">
        <path
            d="M27.9125 19.4101C27.9708 18.9601 28 18.4951 28 18.0001C28 17.5201 27.9708 17.0401 27.8979 16.5901L30.8583 14.2201C31.1208 14.0101 31.1937 13.6051 31.0333 13.3051L28.2333 8.3251C28.0583 7.9951 27.6937 7.8901 27.3729 7.9951L23.8875 9.4351C23.1583 8.8651 22.3854 8.3851 21.525 8.0251L21 4.2151C20.9417 3.8551 20.65 3.6001 20.3 3.6001H14.7C14.35 3.6001 14.0729 3.8551 14.0146 4.2151L13.4896 8.0251C12.6292 8.3851 11.8417 8.8801 11.1271 9.4351L7.64166 7.9951C7.32083 7.8751 6.95625 7.9951 6.78125 8.3251L3.99583 13.3051C3.82083 13.6201 3.87916 14.0101 4.17083 14.2201L7.13125 16.5901C7.05833 17.0401 7 17.5351 7 18.0001C7 18.4651 7.02916 18.9601 7.10208 19.4101L4.14166 21.7801C3.87916 21.9901 3.80625 22.3951 3.96666 22.6951L6.76666 27.6751C6.94166 28.0051 7.30625 28.1101 7.62708 28.0051L11.1125 26.5651C11.8417 27.1351 12.6146 27.6151 13.475 27.9751L14 31.7851C14.0729 32.1451 14.35 32.4001 14.7 32.4001H20.3C20.65 32.4001 20.9417 32.1451 20.9854 31.7851L21.5104 27.9751C22.3708 27.6151 23.1583 27.1351 23.8729 26.5651L27.3583 28.0051C27.6792 28.1251 28.0437 28.0051 28.2187 27.6751L31.0187 22.6951C31.1937 22.3651 31.1208 21.9901 30.8437 21.7801L27.9125 19.4101ZM17.5 23.4001C14.6125 23.4001 12.25 20.9701 12.25 18.0001C12.25 15.0301 14.6125 12.6001 17.5 12.6001C20.3875 12.6001 22.75 15.0301 22.75 18.0001C22.75 20.9701 20.3875 23.4001 17.5 23.4001Z"
            fill="white" />
    </g>
    <defs>
        <clipPath id="clip0_692_1770">
            <rect width="35" height="36" fill="white" />
        </clipPath>
    </defs>
</svg>