<svg width="21" height="21" viewBox="0 0 21 21" fill="none" xmlns="http://www.w3.org/2000/svg">
    <path
        d="M12.0349 4.2C11.1977 4.2 10.4651 4.935 10.4651 5.775C10.4651 6.615 11.1977 7.35 12.0349 7.35C12.8721 7.35 13.6047 6.615 13.6047 5.775C13.6047 4.935 12.8721 4.2 12.0349 4.2ZM17.7907 0H3.13954C1.36047 0 0 1.365 0 3.15V17.85C0 19.635 1.36047 21 3.13954 21H17.7907C19.5698 21 20.9302 19.635 20.9302 17.85V3.15C20.9302 1.365 19.5698 0 17.7907 0ZM18.8372 12.495L16.8488 10.5C15.593 9.34499 13.6047 9.34499 12.4535 10.5L11.5116 11.445L8.47675 8.4C7.22093 7.245 5.23256 7.245 4.0814 8.4L2.09302 10.395V3.15C2.09302 2.52 2.51163 2.1 3.13954 2.1H17.7907C18.4186 2.1 18.8372 2.52 18.8372 3.15V12.495Z"
        fill="white" />
</svg>