<svg width="27" height="27" viewBox="0 0 27 27" fill="none" xmlns="http://www.w3.org/2000/svg">
    <path
        d="M13.5 0C6.048 0 0 6.048 0 13.5C0 20.952 6.048 27 13.5 27C20.952 27 27 20.952 27 13.5C27 6.048 20.952 0 13.5 0ZM13.5 4.05C15.741 4.05 17.55 5.859 17.55 8.1C17.55 10.341 15.741 12.15 13.5 12.15C11.259 12.15 9.45 10.341 9.45 8.1C9.45 5.859 11.259 4.05 13.5 4.05ZM13.5 23.22C10.125 23.22 7.1415 21.492 5.4 18.873C5.4405 16.1865 10.8 14.715 13.5 14.715C16.1865 14.715 21.5595 16.1865 21.6 18.873C19.8585 21.492 16.875 23.22 13.5 23.22Z"
        fill="white" fill-opacity="0.6" />
</svg>