<svg width="31" height="31" viewBox="0 0 31 31" fill="none" xmlns="http://www.w3.org/2000/svg">
    <g clip-path="url(#clip0_593_1627)">
        <path
            d="M25.2652 22.2556C25.7645 21.7597 26.5648 21.7597 27.0641 22.2556L30.3639 24.9191H30.4211C31.0887 25.5939 31.0887 26.6879 30.4211 27.3627C29.7536 28.0375 28.6712 28.0375 28.0036 27.3627L25.2652 24.2243L25.1613 24.107C24.9677 23.862 24.8608 23.5566 24.8608 23.2399C24.8608 22.8705 25.0063 22.5163 25.2652 22.2556ZM16.1679 2.03536C19.1064 2.03536 21.9245 3.21522 24.0023 5.31538C26.0801 7.41555 27.2474 10.264 27.2474 13.2341C27.2474 19.4189 22.2869 24.4328 16.1679 24.4328C10.0489 24.4328 5.0884 19.4189 5.0884 13.2341C5.0884 7.04919 10.0489 2.03536 16.1679 2.03536Z"
            fill="white" fill-opacity="0.6" />
    </g>
    <defs>
        <clipPath id="clip0_593_1627">
            <rect width="30.4615" height="30.4615" fill="white" transform="scale(1.01768)" />
        </clipPath>
    </defs>
</svg>