<svg width="20" height="20" viewBox="0 0 20 20" fill="none" xmlns="http://www.w3.org/2000/svg">
    <path
        d="M8.125 13.1875C8 13.0625 7.9375 12.9097 7.9375 12.7292C7.9375 12.5486 8 12.4028 8.125 12.2917L9.79167 10.625H3.125C2.94444 10.625 2.79514 10.566 2.67708 10.4479C2.55903 10.3299 2.5 10.1806 2.5 10C2.5 9.81944 2.55903 9.67014 2.67708 9.55208C2.79514 9.43403 2.94444 9.375 3.125 9.375H9.75L8.0625 7.6875C7.95139 7.57639 7.89583 7.43403 7.89583 7.26042C7.89583 7.08681 7.95833 6.9375 8.08333 6.8125C8.20833 6.6875 8.35764 6.625 8.53125 6.625C8.70486 6.625 8.85417 6.6875 8.97917 6.8125L11.75 9.58333C11.8194 9.65278 11.8681 9.72222 11.8958 9.79167C11.9236 9.86111 11.9375 9.9375 11.9375 10.0208C11.9375 10.1042 11.9236 10.1806 11.8958 10.25C11.8681 10.3194 11.8194 10.3889 11.75 10.4583L9 13.2083C8.88889 13.3194 8.74653 13.375 8.57292 13.375C8.39931 13.375 8.25 13.3125 8.125 13.1875ZM10.8125 17.5C10.6319 17.5 10.4826 17.441 10.3646 17.3229C10.2465 17.2049 10.1875 17.0556 10.1875 16.875C10.1875 16.6944 10.2465 16.5451 10.3646 16.4271C10.4826 16.309 10.6319 16.25 10.8125 16.25H16.25V3.75H10.8125C10.6319 3.75 10.4826 3.69097 10.3646 3.57292C10.2465 3.45486 10.1875 3.30556 10.1875 3.125C10.1875 2.94444 10.2465 2.79514 10.3646 2.67708C10.4826 2.55903 10.6319 2.5 10.8125 2.5H16.25C16.5833 2.5 16.875 2.625 17.125 2.875C17.375 3.125 17.5 3.41667 17.5 3.75V16.25C17.5 16.5833 17.375 16.875 17.125 17.125C16.875 17.375 16.5833 17.5 16.25 17.5H10.8125Z"
        fill="#E66137" />
</svg>