<svg width="31" height="31" viewBox="0 0 31 31" fill="none" xmlns="http://www.w3.org/2000/svg">
    <path
        d="M22.7602 22.8034C23.2594 22.3076 24.0598 22.3076 24.559 22.8034L27.8588 25.467H27.9161C28.5837 26.1418 28.5837 27.2358 27.9161 27.9106C27.2485 28.5853 26.1661 28.5853 25.4985 27.9106L22.7602 24.7722L22.6563 24.6549C22.4627 24.4099 22.3558 24.1044 22.3558 23.7878C22.3558 23.4184 22.5013 23.0642 22.7602 22.8034ZM13.6629 2.58332C16.6013 2.58332 19.4194 3.76318 21.4972 5.86333C23.575 7.96349 24.7423 10.8119 24.7423 13.782C24.7423 19.9668 19.7819 24.9806 13.6629 24.9806C7.54388 24.9806 2.58345 19.9668 2.58345 13.782C2.58345 7.59713 7.54388 2.58332 13.6629 2.58332Z"
        fill="#E66137" />
</svg>