<svg width="21" height="19" viewBox="0 0 21 19" fill="none" xmlns="http://www.w3.org/2000/svg">
    <path
        d="M10.5048 3.98412C13.1405 3.98412 15.2797 6.21523 15.2797 8.96427C15.2797 9.61169 15.1555 10.2193 14.9359 10.787L17.7244 13.6954C19.1664 12.4404 20.3029 10.8169 21 8.96427C19.3479 4.5917 15.2701 1.49404 10.4952 1.49404C9.15825 1.49404 7.87858 1.74305 6.69441 2.19127L8.75716 4.34269C9.3015 4.1136 9.88404 3.98412 10.5048 3.98412ZM0.95498 1.26496L3.13233 3.53591L3.57162 3.99408C1.98636 5.27896 0.744884 6.99213 0 8.96427C1.65211 13.3368 5.72988 16.4345 10.5048 16.4345C11.985 16.4345 13.3984 16.1357 14.6876 15.5978L15.0887 16.0162L17.8868 18.9246L19.0996 17.6596L2.1678 0L0.95498 1.26496ZM6.23602 6.773L7.71623 8.31685C7.66849 8.52602 7.63984 8.74514 7.63984 8.96427C7.63984 10.6177 8.91951 11.9524 10.5048 11.9524C10.7149 11.9524 10.925 11.9225 11.1255 11.8727L12.6057 13.4165C11.9659 13.7452 11.2592 13.9444 10.5048 13.9444C7.86903 13.9444 5.72988 11.7133 5.72988 8.96427C5.72988 8.17741 5.92087 7.44034 6.23602 6.773ZM10.352 5.9961L13.3602 9.13359L13.3793 8.97423C13.3793 7.32082 12.0996 5.98614 10.5143 5.98614L10.352 5.9961Z"
        fill="#E66137" />
</svg>