<svg width="22" height="22" viewBox="0 0 22 22" fill="none" xmlns="http://www.w3.org/2000/svg">
    <path
        d="M7.01248 10.0147C7.2722 10.0147 7.48991 9.9269 7.6656 9.7512C7.8413 9.57551 7.92915 9.3578 7.92915 9.09808C7.92915 8.83836 7.8413 8.62065 7.6656 8.44495C7.48991 8.26926 7.2722 8.18141 7.01248 8.18141C6.75276 8.18141 6.53505 8.26926 6.35935 8.44495C6.18366 8.62065 6.09581 8.83836 6.09581 9.09808C6.09581 9.3578 6.18366 9.57551 6.35935 9.7512C6.53505 9.9269 6.75276 10.0147 7.01248 10.0147ZM11.0687 10.0147C11.3285 10.0147 11.5462 9.9269 11.7219 9.7512C11.8975 9.57551 11.9854 9.3578 11.9854 9.09808C11.9854 8.83836 11.8975 8.62065 11.7219 8.44495C11.5462 8.26926 11.3285 8.18141 11.0687 8.18141C10.809 8.18141 10.5913 8.26926 10.4156 8.44495C10.2399 8.62065 10.1521 8.83836 10.1521 9.09808C10.1521 9.3578 10.2399 9.57551 10.4156 9.7512C10.5913 9.9269 10.809 10.0147 11.0687 10.0147ZM14.9646 10.0147C15.2243 10.0147 15.442 9.9269 15.6177 9.7512C15.7934 9.57551 15.8812 9.3578 15.8812 9.09808C15.8812 8.83836 15.7934 8.62065 15.6177 8.44495C15.442 8.26926 15.2243 8.18141 14.9646 8.18141C14.7048 8.18141 14.4871 8.26926 14.3114 8.44495C14.1357 8.62065 14.0479 8.83836 14.0479 9.09808C14.0479 9.3578 14.1357 9.57551 14.3114 9.7512C14.4871 9.9269 14.7048 10.0147 14.9646 10.0147ZM1.83331 20.1668V3.2085C1.83331 2.85711 1.97081 2.54009 2.24581 2.25745C2.52081 1.97482 2.84165 1.8335 3.20831 1.8335H18.7916C19.143 1.8335 19.46 1.97482 19.7427 2.25745C20.0253 2.54009 20.1666 2.85711 20.1666 3.2085V15.1252C20.1666 15.4766 20.0253 15.7936 19.7427 16.0762C19.46 16.3588 19.143 16.5002 18.7916 16.5002H5.49998L1.83331 20.1668ZM3.20831 16.8439L4.92706 15.1252H18.7916V3.2085H3.20831V16.8439Z"
        fill="#E66137" />
</svg>