<svg width="19" height="18" viewBox="0 0 19 18" fill="none" xmlns="http://www.w3.org/2000/svg">
    <path
        d="M2.77081 15C2.45415 15 2.17706 14.8875 1.93956 14.6625C1.70206 14.4375 1.58331 14.175 1.58331 13.875V4.125C1.58331 3.825 1.70206 3.5625 1.93956 3.3375C2.17706 3.1125 2.45415 3 2.77081 3H16.2291C16.5458 3 16.8229 3.1125 17.0604 3.3375C17.2979 3.5625 17.4166 3.825 17.4166 4.125V13.875C17.4166 14.175 17.2979 14.4375 17.0604 14.6625C16.8229 14.8875 16.5458 15 16.2291 15H2.77081ZM16.2291 5.15625L9.81665 9.13125C9.76387 9.15625 9.71439 9.17812 9.66821 9.19687C9.62203 9.21562 9.56595 9.225 9.49998 9.225C9.43401 9.225 9.37793 9.21562 9.33175 9.19687C9.28557 9.17812 9.23609 9.15625 9.18331 9.13125L2.77081 5.15625V13.875H16.2291V5.15625ZM9.49998 8.2125L16.15 4.125H2.86977L9.49998 8.2125ZM2.77081 5.2875V4.54688V4.55625V4.5375V5.2875Z"
        fill="#E66137" />
</svg>