<svg width="22" height="21" viewBox="0 0 22 21" fill="none" xmlns="http://www.w3.org/2000/svg">
    <path
        d="M6.1875 12.2719H12.0083C12.1917 12.2719 12.3483 12.2099 12.4781 12.0859C12.608 11.962 12.6729 11.8052 12.6729 11.6156C12.6729 11.426 12.608 11.2693 12.4781 11.1453C12.3483 11.0214 12.184 10.9594 11.9854 10.9594H6.16458C5.98125 10.9594 5.82465 11.0214 5.69479 11.1453C5.56493 11.2693 5.49999 11.426 5.49999 11.6156C5.49999 11.8052 5.56493 11.962 5.69479 12.0859C5.82465 12.2099 5.98888 12.2719 6.1875 12.2719ZM6.1875 9.42812H15.8354C16.0187 9.42812 16.1753 9.36615 16.3052 9.24219C16.4351 9.11823 16.5 8.96146 16.5 8.77187C16.5 8.58229 16.4351 8.42552 16.3052 8.30156C16.1753 8.1776 16.0111 8.11562 15.8125 8.11562H6.16458C5.98125 8.11562 5.82465 8.1776 5.69479 8.30156C5.56493 8.42552 5.49999 8.58229 5.49999 8.77187C5.49999 8.96146 5.56493 9.11823 5.69479 9.24219C5.82465 9.36615 5.98888 9.42812 6.1875 9.42812ZM6.1875 6.58437H15.8354C16.0187 6.58437 16.1753 6.5224 16.3052 6.39844C16.4351 6.27448 16.5 6.11771 16.5 5.92812C16.5 5.73854 16.4351 5.58177 16.3052 5.45781C16.1753 5.33385 16.0111 5.27188 15.8125 5.27188H6.16458C5.98125 5.27188 5.82465 5.33385 5.69479 5.45781C5.56493 5.58177 5.49999 5.73854 5.49999 5.92812C5.49999 6.11771 5.56493 6.27448 5.69479 6.39844C5.82465 6.5224 5.98888 6.58437 6.1875 6.58437ZM1.83333 17.675V3.0625C1.83333 2.72708 1.97083 2.42448 2.24583 2.15469C2.52083 1.8849 2.84166 1.75 3.20833 1.75H18.7917C19.1431 1.75 19.4601 1.8849 19.7427 2.15469C20.0253 2.42448 20.1667 2.72708 20.1667 3.0625V14.4375C20.1667 14.7729 20.0253 15.0755 19.7427 15.3453C19.4601 15.6151 19.1431 15.75 18.7917 15.75H5.49999L3.00208 18.1344C2.78819 18.3385 2.53993 18.3859 2.25729 18.2766C1.97465 18.1672 1.83333 17.9667 1.83333 17.675ZM3.20833 16.0781L4.92708 14.4375H18.7917V3.0625H3.20833V16.0781Z"
        fill="#E66137" />
</svg>