<svg width="7" height="13" viewBox="0 0 7 13" fill="none" xmlns="http://www.w3.org/2000/svg">
    <g clip-path="url(#clip0_134_873)">
        <path fill-rule="evenodd" clip-rule="evenodd"
            d="M0.23287 12.8102C0.490598 13.0637 0.907419 13.0637 1.16451 12.8102L6.61369 7.43847C6.73567 7.32006 6.8328 7.17779 6.89917 7.01984C6.96554 6.86189 6.99975 6.69153 6.99975 6.51964C6.99975 6.34776 6.96554 6.17771 6.89917 6.01977C6.8328 5.86182 6.73567 5.71954 6.61369 5.60114L1.12506 0.189762C1.00049 0.0688282 0.835532 0.000857366 0.66368 -0.000349888C0.491828 -0.00155714 0.325961 0.0642421 0.199778 0.183415C0.137269 0.242266 0.0872593 0.313492 0.0528347 0.392887C0.0184102 0.472283 0.000308507 0.558058 -0.000347705 0.644889C-0.00100392 0.73172 0.0157982 0.817597 0.0490186 0.897526C0.0822391 0.977455 0.131165 1.04971 0.192777 1.10954L5.21623 6.06071C5.27727 6.11992 5.32587 6.19118 5.35909 6.27018C5.3923 6.34919 5.40944 6.43398 5.40944 6.51996C5.40944 6.60594 5.3923 6.69106 5.35909 6.77006C5.32587 6.84906 5.27727 6.92033 5.21623 6.97953L0.23287 11.8917C0.17185 11.9508 0.123261 12.0222 0.0900537 12.1011C0.0568467 12.1801 0.0397163 12.265 0.0397163 12.3509C0.0397163 12.4368 0.0568467 12.5217 0.0900537 12.6007C0.123261 12.6796 0.17185 12.751 0.23287 12.8102Z"
            fill="black" />
    </g>
    <defs>
        <clipPath id="clip0_134_873">
            <rect width="7" height="13" fill="white" />
        </clipPath>
    </defs>
</svg>