<svg width="32" height="32" viewBox="0 0 32 32" fill="none" xmlns="http://www.w3.org/2000/svg">
    <g clip-path="url(#clip0_93_673)">
        <path
            d="M12 18.3334C8.87996 18.3334 2.66663 19.8934 2.66663 23V25.3334H21.3333V23C21.3333 19.8934 15.12 18.3334 12 18.3334ZM5.78663 22.6667C6.90663 21.8934 9.61329 21 12 21C14.3866 21 17.0933 21.8934 18.2133 22.6667H5.78663ZM12 16C14.5733 16 16.6666 13.9067 16.6666 11.3334C16.6666 8.76002 14.5733 6.66669 12 6.66669C9.42663 6.66669 7.33329 8.76002 7.33329 11.3334C7.33329 13.9067 9.42663 16 12 16ZM12 9.33335C13.1066 9.33335 14 10.2267 14 11.3334C14 12.44 13.1066 13.3334 12 13.3334C10.8933 13.3334 9.99996 12.44 9.99996 11.3334C9.99996 10.2267 10.8933 9.33335 12 9.33335ZM21.3866 18.4134C22.9333 19.5334 24 21.0267 24 23V25.3334H29.3333V23C29.3333 20.3067 24.6666 18.7734 21.3866 18.4134ZM20 16C22.5733 16 24.6666 13.9067 24.6666 11.3334C24.6666 8.76002 22.5733 6.66669 20 6.66669C19.28 6.66669 18.6133 6.84002 18 7.13335C18.84 8.32002 19.3333 9.77335 19.3333 11.3334C19.3333 12.8934 18.84 14.3467 18 15.5334C18.6133 15.8267 19.28 16 20 16Z"
            fill="white" />
    </g>
    <defs>
        <clipPath id="clip0_93_673">
            <rect width="32" height="32" fill="white" />
        </clipPath>
    </defs>
</svg>