<svg width="42" height="42" viewBox="0 0 42 42" fill="none" xmlns="http://www.w3.org/2000/svg">
    <path
        d="M21.5075 9.11739L24.1325 11.7424C24.2952 11.9064 24.4887 12.0366 24.702 12.1255C24.9152 12.2143 25.144 12.26 25.375 12.26C25.606 12.26 25.8348 12.2143 26.048 12.1255C26.2613 12.0366 26.4548 11.9064 26.6175 11.7424C26.8831 11.4636 27.0493 11.1051 27.0904 10.7222C27.1316 10.3394 27.0453 9.95371 26.845 9.62489H33.25C33.7141 9.62489 34.1592 9.44052 34.4874 9.11233C34.8156 8.78414 35 8.33902 35 7.87489C35 7.41076 34.8156 6.96564 34.4874 6.63746C34.1592 6.30927 33.7141 6.12489 33.25 6.12489H26.845C27.0453 5.79607 27.1316 5.41037 27.0904 5.02755C27.0493 4.64473 26.8831 4.28616 26.6175 4.00739C26.4548 3.84337 26.2613 3.71318 26.048 3.62433C25.8348 3.53549 25.606 3.48975 25.375 3.48975C25.144 3.48975 24.9152 3.53549 24.702 3.62433C24.4887 3.71318 24.2952 3.84337 24.1325 4.00739L21.5075 6.63239C21.3482 6.79882 21.2233 6.99508 21.14 7.20989C20.965 7.63595 20.965 8.11384 21.14 8.53989C21.2233 8.75471 21.3482 8.95096 21.5075 9.11739ZM40.11 15.9599C40.0267 15.7451 39.9018 15.5488 39.7425 15.3824L37.1175 12.7574C36.9548 12.5934 36.7613 12.4632 36.548 12.3743C36.3348 12.2855 36.106 12.2397 35.875 12.2397C35.644 12.2397 35.4152 12.2855 35.202 12.3743C34.9887 12.4632 34.7952 12.5934 34.6325 12.7574C34.3669 13.0362 34.2007 13.3947 34.1596 13.7776C34.1184 14.1604 34.2047 14.5461 34.405 14.8749H28C27.5359 14.8749 27.0908 15.0593 26.7626 15.3875C26.4344 15.7156 26.25 16.1608 26.25 16.6249C26.25 17.089 26.4344 17.5341 26.7626 17.8623C27.0908 18.1905 27.5359 18.3749 28 18.3749H34.405C34.2047 18.7037 34.1184 19.0894 34.1596 19.4722C34.2007 19.8551 34.3669 20.2136 34.6325 20.4924C34.7952 20.6564 34.9887 20.7866 35.202 20.8755C35.4152 20.9643 35.644 21.01 35.875 21.01C36.106 21.01 36.3348 20.9643 36.548 20.8755C36.7613 20.7866 36.9548 20.6564 37.1175 20.4924L39.7425 17.8674C39.9018 17.701 40.0267 17.5047 40.11 17.2899C40.285 16.8638 40.285 16.386 40.11 15.9599ZM19.25 17.4999C17.8655 17.4999 16.5122 17.9104 15.361 18.6796C14.2099 19.4488 13.3127 20.542 12.7828 21.8211C12.253 23.1002 12.1144 24.5077 12.3845 25.8655C12.6546 27.2234 13.3213 28.4707 14.3003 29.4496C15.2792 30.4286 16.5265 31.0953 17.8844 31.3654C19.2422 31.6355 20.6497 31.4969 21.9288 30.9671C23.2079 30.4372 24.3011 29.54 25.0703 28.3889C25.8395 27.2377 26.25 25.8844 26.25 24.4999C26.25 22.6434 25.5125 20.8629 24.1997 19.5501C22.887 18.2374 21.1065 17.4999 19.25 17.4999ZM19.25 27.9999C18.5578 27.9999 17.8811 27.7946 17.3055 27.41C16.7299 27.0255 16.2813 26.4788 16.0164 25.8393C15.7515 25.1997 15.6822 24.496 15.8173 23.8171C15.9523 23.1381 16.2856 22.5145 16.7751 22.025C17.2646 21.5355 17.8883 21.2022 18.5672 21.0671C19.2461 20.9321 19.9499 21.0014 20.5894 21.2663C21.2289 21.5312 21.7756 21.9798 22.1601 22.5554C22.5447 23.131 22.75 23.8077 22.75 24.4999C22.75 25.4282 22.3813 26.3184 21.7249 26.9748C21.0685 27.6311 20.1783 27.9999 19.25 27.9999ZM35 22.7499C34.5359 22.7499 34.0908 22.9343 33.7626 23.2625C33.4344 23.5906 33.25 24.0358 33.25 24.4999V33.2499C33.25 33.714 33.0656 34.1591 32.7374 34.4873C32.4093 34.8155 31.9641 34.9999 31.5 34.9999H7C6.53587 34.9999 6.09075 34.8155 5.76256 34.4873C5.43437 34.1591 5.25 33.714 5.25 33.2499V19.2499C5.25 18.7858 5.43437 18.3406 5.76256 18.0125C6.09075 17.6843 6.53587 17.4999 7 17.4999H10.5C10.8838 17.5187 11.2631 17.4106 11.5794 17.1924C11.8957 16.9741 12.1313 16.6579 12.25 16.2924L13.195 13.4574C13.3044 13.1203 13.5135 12.8244 13.7948 12.6088C14.076 12.3932 14.4161 12.268 14.77 12.2499H17.5C17.9641 12.2499 18.4092 12.0655 18.7374 11.7373C19.0656 11.4091 19.25 10.964 19.25 10.4999C19.25 10.0358 19.0656 9.59065 18.7374 9.26246C18.4092 8.93427 17.9641 8.74989 17.5 8.74989H14.77C13.6651 8.7495 12.5882 9.09773 11.6927 9.74501C10.7972 10.3923 10.1287 11.3056 9.7825 12.3549L9.24 13.9999H7C5.60761 13.9999 4.27226 14.553 3.28769 15.5376C2.30312 16.5221 1.75 17.8575 1.75 19.2499V33.2499C1.75 34.6423 2.30312 35.9776 3.28769 36.9622C4.27226 37.9468 5.60761 38.4999 7 38.4999H31.5C32.8924 38.4999 34.2277 37.9468 35.2123 36.9622C36.1969 35.9776 36.75 34.6423 36.75 33.2499V24.4999C36.75 24.0358 36.5656 23.5906 36.2374 23.2625C35.9092 22.9343 35.4641 22.7499 35 22.7499Z"
        fill="#E66137" />
</svg>