<svg width="18" height="18" viewBox="0 0 18 18" fill="none" xmlns="http://www.w3.org/2000/svg">
    <path
        d="M2.48277 6.51727H15.5173C15.8465 6.51727 16.1622 6.64806 16.395 6.88087C16.6278 7.11367 16.7586 7.42942 16.7586 7.75865V15.2069C16.7586 15.5362 16.6278 15.8519 16.395 16.0847C16.1622 16.3175 15.8465 16.4483 15.5173 16.4483H2.48277C2.15354 16.4483 1.83779 16.3175 1.60499 16.0847C1.37218 15.8519 1.24139 15.5362 1.24139 15.2069V7.75865C1.24139 7.42942 1.37218 7.11367 1.60499 6.88087C1.83779 6.64806 2.15354 6.51727 2.48277 6.51727ZM4.34484 1.55176H13.6552C13.8198 1.55176 13.9777 1.61715 14.0941 1.73355C14.2105 1.84996 14.2759 2.00783 14.2759 2.17245C14.2759 2.33706 14.2105 2.49494 14.0941 2.61134C13.9777 2.72774 13.8198 2.79314 13.6552 2.79314H4.34484C4.18023 2.79314 4.02235 2.72774 3.90595 2.61134C3.78955 2.49494 3.72415 2.33706 3.72415 2.17245C3.72415 2.00783 3.78955 1.84996 3.90595 1.73355C4.02235 1.61715 4.18023 1.55176 4.34484 1.55176ZM3.10346 4.03452H14.8966C15.0612 4.03452 15.2191 4.09991 15.3355 4.21631C15.4519 4.33271 15.5173 4.49059 15.5173 4.65521C15.5173 4.81982 15.4519 4.9777 15.3355 5.0941C15.2191 5.2105 15.0612 5.2759 14.8966 5.2759H3.10346C2.93885 5.2759 2.78097 5.2105 2.66457 5.0941C2.54817 4.9777 2.48277 4.81982 2.48277 4.65521C2.48277 4.49059 2.54817 4.33271 2.66457 4.21631C2.78097 4.09991 2.93885 4.03452 3.10346 4.03452Z"
        fill="#E66137" />
</svg>