<svg width="34" height="34" viewBox="0 0 34 34" fill="none" xmlns="http://www.w3.org/2000/svg">
    <path
        d="M28.7583 9.10169L27.5542 6.44544L24.8979 5.24128L27.5542 4.03711L28.7583 1.38086L29.9625 4.03711L32.6187 5.24128L29.9625 6.44544L28.7583 9.10169ZM11.6875 9.10169L10.4833 6.44544L7.82708 5.24128L10.4833 4.03711L11.6875 1.38086L12.8917 4.03711L15.5479 5.24128L12.8917 6.44544L11.6875 9.10169ZM28.7583 26.1725L27.5542 23.5163L24.8979 22.3121L27.5542 21.1079L28.7583 18.4517L29.9625 21.1079L32.6187 22.3121L29.9625 23.5163L28.7583 26.1725ZM6.62292 30.7413L3.25833 27.3767C2.99861 27.117 2.85694 26.8159 2.83333 26.4736C2.80972 26.1312 2.95139 25.8066 3.25833 25.4996L19.1958 9.56211C19.4792 9.27878 19.8215 9.13711 20.2229 9.13711C20.6243 9.13711 20.9667 9.27878 21.25 9.56211L24.4375 12.7496C24.7208 13.0329 24.8625 13.3753 24.8625 13.7767C24.8625 14.1781 24.7208 14.5204 24.4375 14.8038L8.5 30.7413C8.21667 31.0246 7.90382 31.1663 7.56146 31.1663C7.2191 31.1663 6.90625 31.0246 6.62292 30.7413ZM20.1875 16.0079L22.3833 13.8121L20.1875 11.6163L17.9917 13.8121L20.1875 16.0079Z"
        fill="white" />
</svg>