<svg width="21" height="19" viewBox="0 0 21 19" fill="none" xmlns="http://www.w3.org/2000/svg">
    <path
        d="M15.9031 17.4168C15.2177 17.4168 14.6307 17.1958 14.1422 16.7538C13.6536 16.3118 13.4094 15.7807 13.4094 15.1606C13.4094 15.0682 13.4203 14.9594 13.4422 14.834C13.4641 14.7087 13.4969 14.5932 13.5406 14.4877L6.9125 11.0043C6.69375 11.2286 6.42396 11.4101 6.10312 11.5486C5.78229 11.6871 5.45417 11.7564 5.11875 11.7564C4.43333 11.7564 3.84635 11.5354 3.35781 11.0934C2.86927 10.6514 2.625 10.1203 2.625 9.50016C2.625 8.86683 2.86927 8.33245 3.35781 7.89704C3.84635 7.46162 4.43333 7.24391 5.11875 7.24391C5.45417 7.24391 5.775 7.30329 6.08125 7.42204C6.3875 7.54079 6.66458 7.71232 6.9125 7.93662L13.5406 4.49287C13.4969 4.40051 13.4641 4.29495 13.4422 4.1762C13.4203 4.05745 13.4094 3.9453 13.4094 3.83975C13.4094 3.20641 13.6536 2.67204 14.1422 2.23662C14.6307 1.8012 15.2177 1.5835 15.9031 1.5835C16.6031 1.5835 17.1938 1.8012 17.675 2.23662C18.1563 2.67204 18.3969 3.20641 18.3969 3.83975C18.3969 4.45988 18.1563 4.99096 17.675 5.43298C17.1938 5.87499 16.6031 6.096 15.9031 6.096C15.5677 6.096 15.2432 6.04652 14.9297 5.94756C14.6161 5.8486 14.35 5.68697 14.1312 5.46266L7.50312 8.78766C7.53229 8.89322 7.55781 9.01527 7.57969 9.15381C7.60156 9.29235 7.6125 9.4078 7.6125 9.50016C7.6125 9.59252 7.60156 9.69148 7.57969 9.79704C7.55781 9.90259 7.53229 10.0081 7.50312 10.1137L14.1312 13.5179C14.35 13.3331 14.6052 13.1847 14.8969 13.0726C15.1885 12.9604 15.524 12.9043 15.9031 12.9043C16.6031 12.9043 17.1938 13.122 17.675 13.5575C18.1563 13.9929 18.3969 14.5272 18.3969 15.1606C18.3969 15.7807 18.1563 16.3118 17.675 16.7538C17.1938 17.1958 16.6031 17.4168 15.9031 17.4168ZM15.9031 4.9085C16.2385 4.9085 16.5193 4.80624 16.7453 4.60173C16.9714 4.39721 17.0844 4.14322 17.0844 3.83975C17.0844 3.53627 16.9714 3.28228 16.7453 3.07777C16.5193 2.87325 16.2385 2.771 15.9031 2.771C15.5677 2.771 15.287 2.87325 15.0609 3.07777C14.8349 3.28228 14.7219 3.53627 14.7219 3.83975C14.7219 4.14322 14.8349 4.39721 15.0609 4.60173C15.287 4.80624 15.5677 4.9085 15.9031 4.9085ZM5.11875 10.5689C5.45417 10.5689 5.7349 10.4667 5.96094 10.2621C6.18698 10.0576 6.3 9.80363 6.3 9.50016C6.3 9.19669 6.18698 8.9427 5.96094 8.73818C5.7349 8.53367 5.45417 8.43141 5.11875 8.43141C4.78333 8.43141 4.5026 8.53367 4.27656 8.73818C4.05052 8.9427 3.9375 9.19669 3.9375 9.50016C3.9375 9.80363 4.05052 10.0576 4.27656 10.2621C4.5026 10.4667 4.78333 10.5689 5.11875 10.5689ZM15.9031 16.2293C16.2385 16.2293 16.5193 16.1271 16.7453 15.9226C16.9714 15.718 17.0844 15.4641 17.0844 15.1606C17.0844 14.8571 16.9714 14.6031 16.7453 14.3986C16.5193 14.1941 16.2385 14.0918 15.9031 14.0918C15.5677 14.0918 15.287 14.1941 15.0609 14.3986C14.8349 14.6031 14.7219 14.8571 14.7219 15.1606C14.7219 15.4641 14.8349 15.718 15.0609 15.9226C15.287 16.1271 15.5677 16.2293 15.9031 16.2293Z"
        fill="#E66137" />
</svg>