<svg width="21" height="21" viewBox="0 0 21 21" fill="none" xmlns="http://www.w3.org/2000/svg">
    <g clip-path="url(#clip0_333_3321)">
        <path
            d="M16.6862 4.31371C15.2505 2.86865 13.3557 1.96977 11.3283 1.77205C9.30089 1.57432 7.26804 2.09014 5.58019 3.23057C3.89235 4.37101 2.65529 6.06459 2.08228 8.01934C1.50926 9.9741 1.63621 12.0675 2.44123 13.9387C2.52514 14.1126 2.55267 14.3084 2.51998 14.4987L1.74998 18.2C1.72032 18.3419 1.72637 18.4889 1.76761 18.6279C1.80885 18.7669 1.88397 18.8934 1.98623 18.9962C2.07006 19.0794 2.16987 19.1448 2.27965 19.1884C2.38943 19.232 2.5069 19.253 2.62498 19.25H2.79998L6.54498 18.4975C6.73532 18.4746 6.92834 18.5017 7.10498 18.5762C8.97617 19.3812 11.0696 19.5082 13.0243 18.9352C14.9791 18.3622 16.6727 17.1251 17.8131 15.4372C18.9536 13.7494 19.4694 11.7166 19.2716 9.68916C19.0739 7.66177 18.175 5.7669 16.73 4.33121L16.6862 4.31371ZM6.99998 11.375C6.82692 11.375 6.65775 11.3236 6.51386 11.2275C6.36996 11.1313 6.25781 10.9947 6.19159 10.8348C6.12536 10.6749 6.10803 10.499 6.14179 10.3293C6.17556 10.1595 6.25889 10.0036 6.38126 9.88124C6.50363 9.75887 6.65954 9.67553 6.82928 9.64177C6.99901 9.60801 7.17494 9.62534 7.33483 9.69156C7.49472 9.75779 7.63137 9.86994 7.72752 10.0138C7.82366 10.1577 7.87498 10.3269 7.87498 10.5C7.87498 10.732 7.78279 10.9546 7.6187 11.1187C7.45461 11.2828 7.23205 11.375 6.99998 11.375ZM10.5 11.375C10.3269 11.375 10.1578 11.3236 10.0139 11.2275C9.86996 11.1313 9.75781 10.9947 9.69159 10.8348C9.62536 10.6749 9.60803 10.499 9.64179 10.3293C9.67556 10.1595 9.75889 10.0036 9.88126 9.88124C10.0036 9.75887 10.1595 9.67553 10.3293 9.64177C10.499 9.60801 10.6749 9.62534 10.8348 9.69156C10.9947 9.75779 11.1314 9.86994 11.2275 10.0138C11.3237 10.1577 11.375 10.3269 11.375 10.5C11.375 10.732 11.2828 10.9546 11.1187 11.1187C10.9546 11.2828 10.732 11.375 10.5 11.375ZM14 11.375C13.8269 11.375 13.6578 11.3236 13.5139 11.2275C13.37 11.1313 13.2578 10.9947 13.1916 10.8348C13.1254 10.6749 13.108 10.499 13.1418 10.3293C13.1756 10.1595 13.2589 10.0036 13.3813 9.88124C13.5036 9.75887 13.6595 9.67553 13.8293 9.64177C13.999 9.60801 14.1749 9.62534 14.3348 9.69156C14.4947 9.75779 14.6314 9.86994 14.7275 10.0138C14.8237 10.1577 14.875 10.3269 14.875 10.5C14.875 10.732 14.7828 10.9546 14.6187 11.1187C14.4546 11.2828 14.232 11.375 14 11.375Z"
            fill="#E66137" />
    </g>
    <defs>
        <clipPath id="clip0_333_3321">
            <rect width="21" height="21" fill="white" />
        </clipPath>
    </defs>
</svg>