<svg width="34" height="32" viewBox="0 0 34 32" fill="none" xmlns="http://www.w3.org/2000/svg">
    <path
        d="M12.9536 27.2332V23.2144C12.9536 22.196 13.8489 21.3686 14.9578 21.3622H19.0295C20.1434 21.3622 21.0464 22.1914 21.0464 23.2144V27.2216C21.0463 28.1049 21.8224 28.8227 22.7842 28.8292H25.5621C26.8595 28.8322 28.1049 28.3611 29.0235 27.5197C29.9421 26.6783 30.4583 25.5358 30.4583 24.3443V12.9284C30.4583 11.9659 29.9938 11.053 29.1899 10.4355L19.7525 3.50441C18.1029 2.29208 15.7468 2.33125 14.146 3.5976L4.91159 10.4355C4.06971 11.0348 3.56653 11.9504 3.54166 12.9284V24.3326C3.54166 26.816 5.73378 28.8292 8.4379 28.8292H11.1524C11.6155 28.8322 12.0608 28.6655 12.3894 28.3658C12.7181 28.0662 12.9029 27.6585 12.9029 27.2332H12.9536Z"
        fill="#E66137" />
</svg>