<svg width="31" height="31" viewBox="0 0 31 31" fill="none" xmlns="http://www.w3.org/2000/svg">
    <g clip-path="url(#clip0_333_3503)">
        <path
            d="M25.2651 22.2555C25.7644 21.7596 26.5647 21.7596 27.064 22.2555L30.3637 24.919H30.421C31.0886 25.5938 31.0886 26.6878 30.421 27.3626C29.7534 28.0374 28.6711 28.0374 28.0035 27.3626L25.2651 24.2242L25.1612 24.107C24.9676 23.8619 24.8607 23.5565 24.8607 23.2398C24.8607 22.8704 25.0062 22.5162 25.2651 22.2555ZM16.1678 2.03535C19.1063 2.03535 21.9244 3.21521 24.0022 5.31536C26.08 7.41552 27.2473 10.2639 27.2473 13.234C27.2473 19.4188 22.2868 24.4327 16.1678 24.4327C10.0488 24.4327 5.08838 19.4188 5.08838 13.234C5.08838 7.04916 10.0488 2.03535 16.1678 2.03535Z"
            fill="#E66137" fill-opacity="0.6" />
    </g>
    <defs>
        <clipPath id="clip0_333_3503">
            <rect width="30.4615" height="30.4615" fill="white" transform="scale(1.01768)" />
        </clipPath>
    </defs>
</svg>