<svg width="24" height="20" viewBox="0 0 24 20" fill="none" xmlns="http://www.w3.org/2000/svg">
    <path
        d="M4.75 15.8332C4.53334 15.8332 4.35417 15.7741 4.2125 15.6561C4.07084 15.538 4 15.3887 4 15.2082C4 15.0276 4.07084 14.8783 4.2125 14.7603C4.35417 14.6422 4.53334 14.5832 4.75 14.5832H6.1V8.02067C6.1 7.604 6.17084 7.19775 6.3125 6.80192C6.45417 6.40609 6.65 6.02762 6.9 5.6665L8.025 6.604C7.89167 6.84012 7.7875 7.07275 7.7125 7.30192C7.6375 7.53109 7.6 7.77067 7.6 8.02067V14.5832L15.5 14.5623L2.4 3.6665C2.25 3.5415 2.175 3.39567 2.175 3.229C2.175 3.06234 2.25 2.9165 2.4 2.7915C2.55 2.6665 2.725 2.604 2.925 2.604C3.125 2.604 3.3 2.6665 3.45 2.7915L20.55 17.0623C20.7 17.1873 20.775 17.3332 20.775 17.4998C20.775 17.6665 20.7 17.8123 20.55 17.9373C20.4 18.0623 20.225 18.1248 20.025 18.1248C19.825 18.1248 19.65 18.0623 19.5 17.9373L16.975 15.8332H4.75ZM17.925 13.0832L16.425 11.8332V8.20817C16.425 7.1665 16.0042 6.28803 15.1625 5.57275C14.3208 4.85748 13.2833 4.49984 12.05 4.49984C11.4667 4.49984 10.9083 4.5797 10.375 4.73942C9.84167 4.89914 9.35 5.17345 8.9 5.56234L7.825 4.6665C8.275 4.30539 8.72917 4.02414 9.1875 3.82275C9.64584 3.62137 10.1167 3.47206 10.6 3.37484V2.83317C10.6 2.51373 10.7375 2.23942 11.0125 2.01025C11.2875 1.78109 11.6167 1.6665 12 1.6665C12.3833 1.6665 12.7125 1.78109 12.9875 2.01025C13.2625 2.23942 13.4 2.51373 13.4 2.83317V3.37484C14.7 3.61095 15.7792 4.18039 16.6375 5.08317C17.4958 5.98595 17.925 7.02762 17.925 8.20817V13.0832ZM12 18.3332C11.45 18.3332 10.9792 18.17 10.5875 17.8436C10.1958 17.5172 10 17.1248 10 16.6665H14C14 17.1248 13.8042 17.5172 13.4125 17.8436C13.0208 18.17 12.55 18.3332 12 18.3332Z"
        fill="#E66137" />
</svg>