<svg width="22" height="21" viewBox="0 0 22 21" fill="none" xmlns="http://www.w3.org/2000/svg">
    <g clip-path="url(#clip0_333_3347)">
        <path
            d="M16.5 14.07C15.8033 14.07 15.18 14.3325 14.7033 14.7438L8.1675 11.1125C8.21333 10.9113 8.25 10.71 8.25 10.5C8.25 10.29 8.21333 10.0887 8.1675 9.8875L14.63 6.29125C15.125 6.72875 15.7758 7 16.5 7C18.0217 7 19.25 5.8275 19.25 4.375C19.25 2.9225 18.0217 1.75 16.5 1.75C14.9783 1.75 13.75 2.9225 13.75 4.375C13.75 4.585 13.7867 4.78625 13.8325 4.9875L7.37 8.58375C6.875 8.14625 6.22417 7.875 5.5 7.875C3.97833 7.875 2.75 9.0475 2.75 10.5C2.75 11.9525 3.97833 13.125 5.5 13.125C6.22417 13.125 6.875 12.8537 7.37 12.4162L13.8967 16.0563C13.8508 16.24 13.8233 16.4325 13.8233 16.625C13.8233 18.0338 15.0242 19.18 16.5 19.18C17.9758 19.18 19.1767 18.0338 19.1767 16.625C19.1767 15.2163 17.9758 14.07 16.5 14.07Z"
            fill="black" />
    </g>
    <defs>
        <clipPath id="clip0_333_3347">
            <rect width="22" height="21" fill="white" />
        </clipPath>
    </defs>
</svg>