<svg width="22" height="22" viewBox="0 0 22 22" fill="none" xmlns="http://www.w3.org/2000/svg">
    <path
        d="M11 20.1668C9.73194 20.1668 8.54027 19.9262 7.42499 19.445C6.30972 18.9637 5.33958 18.3106 4.51458 17.4856C3.68958 16.6606 3.03645 15.6904 2.5552 14.5752C2.07395 13.4599 1.83333 12.2682 1.83333 11.0002C1.83333 9.73211 2.07395 8.54044 2.5552 7.42516C3.03645 6.30989 3.68958 5.33975 4.51458 4.51475C5.33958 3.68975 6.30972 3.03662 7.42499 2.55537C8.54027 2.07412 9.73194 1.8335 11 1.8335C12.2681 1.8335 13.4597 2.07412 14.575 2.55537C15.6903 3.03662 16.6604 3.68975 17.4854 4.51475C18.3104 5.33975 18.9635 6.30989 19.4448 7.42516C19.926 8.54044 20.1667 9.73211 20.1667 11.0002C20.1667 12.2682 19.926 13.4599 19.4448 14.5752C18.9635 15.6904 18.3104 16.6606 17.4854 17.4856C16.6604 18.3106 15.6903 18.9637 14.575 19.445C13.4597 19.9262 12.2681 20.1668 11 20.1668ZM11 18.7918C13.1694 18.7918 15.0104 18.0356 16.5229 16.5231C18.0354 15.0106 18.7917 13.1696 18.7917 11.0002C18.7917 10.0682 18.6312 9.17447 18.3104 8.31891C17.9896 7.46336 17.5389 6.68419 16.9583 5.98141L5.98125 16.9585C6.66874 17.5543 7.44409 18.0088 8.30729 18.322C9.17048 18.6352 10.0681 18.7918 11 18.7918ZM5.06458 16.0189L16.0187 5.06475C15.316 4.46891 14.5368 4.01058 13.6812 3.68975C12.8257 3.36891 11.9319 3.2085 11 3.2085C8.83055 3.2085 6.98958 3.96475 5.47708 5.47725C3.96458 6.98975 3.20833 8.83072 3.20833 11.0002C3.20833 11.9321 3.37638 12.8297 3.71249 13.6929C4.04861 14.5561 4.4993 15.3314 5.06458 16.0189Z"
        fill="#E66137" />
</svg>