<svg width="11" height="11" viewBox="0 0 11 11" fill="none" xmlns="http://www.w3.org/2000/svg">
    <path
        d="M3.99383 6.20939L1.0957 9.12434V8.24986C1.0957 8.10399 1.03798 7.9641 0.93524 7.86095C0.832498 7.75781 0.69315 7.69987 0.547851 7.69987C0.402552 7.69987 0.263204 7.75781 0.160462 7.86095C0.0577198 7.9641 0 8.10399 0 8.24986V10.4498C0.000865597 10.5217 0.0157556 10.5927 0.043828 10.6588C0.0994211 10.7932 0.2058 10.9 0.339667 10.9558C0.405531 10.984 0.476259 10.9989 0.547851 10.9998H2.73925C2.88455 10.9998 3.0239 10.9419 3.12664 10.8387C3.22938 10.7356 3.2871 10.5957 3.2871 10.4498C3.2871 10.304 3.22938 10.1641 3.12664 10.0609C3.0239 9.95777 2.88455 9.89983 2.73925 9.89983H1.86817L4.77178 6.99038C4.87494 6.88681 4.9329 6.74635 4.9329 6.59988C4.9329 6.45342 4.87494 6.31296 4.77178 6.20939C4.66862 6.10583 4.5287 6.04764 4.38281 6.04764C4.23691 6.04764 4.09699 6.10583 3.99383 6.20939ZM1.86817 1.09998H2.73925C2.88455 1.09998 3.0239 1.04204 3.12664 0.938892C3.22938 0.835749 3.2871 0.695857 3.2871 0.54999C3.2871 0.404124 3.22938 0.264232 3.12664 0.161088C3.0239 0.0579452 2.88455 0 2.73925 0H0.547851C0.476259 0.000868978 0.405531 0.0158171 0.339667 0.0439992C0.2058 0.0998094 0.0994211 0.206604 0.043828 0.340994C0.0157556 0.407115 0.000865597 0.478119 0 0.54999V2.74995C0 2.89582 0.0577198 3.03571 0.160462 3.13885C0.263204 3.242 0.402552 3.29994 0.547851 3.29994C0.69315 3.29994 0.832498 3.242 0.93524 3.13885C1.03798 3.03571 1.0957 2.89582 1.0957 2.74995V1.87547L3.99383 4.79042C4.04476 4.84197 4.10535 4.88288 4.17211 4.9108C4.23888 4.93873 4.31048 4.9531 4.38281 4.9531C4.45513 4.9531 4.52674 4.93873 4.5935 4.9108C4.66026 4.88288 4.72085 4.84197 4.77178 4.79042C4.82313 4.73929 4.86389 4.67846 4.8917 4.61144C4.91951 4.54442 4.93383 4.47253 4.93383 4.39992C4.93383 4.32732 4.91951 4.25543 4.8917 4.18841C4.86389 4.12139 4.82313 4.06056 4.77178 4.00943L1.86817 1.09998ZM10.4092 7.69987C10.2639 7.69987 10.1245 7.75781 10.0218 7.86095C9.91903 7.9641 9.86131 8.10399 9.86131 8.24986V9.12434L6.96318 6.20939C6.86002 6.10583 6.7201 6.04764 6.57421 6.04764C6.42831 6.04764 6.2884 6.10583 6.18523 6.20939C6.08207 6.31296 6.02412 6.45342 6.02412 6.59988C6.02412 6.74635 6.08207 6.88681 6.18523 6.99038L9.08884 9.89983H8.21776C8.07246 9.89983 7.93311 9.95777 7.83037 10.0609C7.72763 10.1641 7.66991 10.304 7.66991 10.4498C7.66991 10.5957 7.72763 10.7356 7.83037 10.8387C7.93311 10.9419 8.07246 10.9998 8.21776 10.9998H10.4092C10.4808 10.9989 10.5515 10.984 10.6173 10.9558C10.7512 10.9 10.8576 10.7932 10.9132 10.6588C10.9413 10.5927 10.9561 10.5217 10.957 10.4498V8.24986C10.957 8.10399 10.8993 7.9641 10.7966 7.86095C10.6938 7.75781 10.5545 7.69987 10.4092 7.69987ZM10.9132 0.340994C10.8576 0.206604 10.7512 0.0998094 10.6173 0.0439992C10.5515 0.0158171 10.4808 0.000868978 10.4092 0H8.21776C8.07246 0 7.93311 0.0579452 7.83037 0.161088C7.72763 0.264232 7.66991 0.404124 7.66991 0.54999C7.66991 0.695857 7.72763 0.835749 7.83037 0.938892C7.93311 1.04204 8.07246 1.09998 8.21776 1.09998H9.08884L6.18523 4.00943C6.13388 4.06056 6.09313 4.12139 6.06531 4.18841C6.0375 4.25543 6.02318 4.32732 6.02318 4.39992C6.02318 4.47253 6.0375 4.54442 6.06531 4.61144C6.09313 4.67846 6.13388 4.73929 6.18523 4.79042C6.23616 4.84197 6.29676 4.88288 6.36352 4.9108C6.43028 4.93873 6.50189 4.9531 6.57421 4.9531C6.64653 4.9531 6.71814 4.93873 6.7849 4.9108C6.85166 4.88288 6.91225 4.84197 6.96318 4.79042L9.86131 1.87547V2.74995C9.86131 2.89582 9.91903 3.03571 10.0218 3.13885C10.1245 3.242 10.2639 3.29994 10.4092 3.29994C10.5545 3.29994 10.6938 3.242 10.7966 3.13885C10.8993 3.03571 10.957 2.89582 10.957 2.74995V0.54999C10.9561 0.478119 10.9413 0.407115 10.9132 0.340994Z"
        fill="white" />
</svg>