<svg width="20" height="19" viewBox="0 0 20 19" fill="none" xmlns="http://www.w3.org/2000/svg">
    <g clip-path="url(#clip0_333_3343)">
        <path
            d="M12.5 2.71429C15.2587 2.71429 17.5 5.14764 17.5 8.14286C17.5 11.1381 15.2587 13.5714 12.5 13.5714H7.5C5.86938 13.5714 4.41625 14.4251 3.50312 15.7449C2.89563 15.2468 2.5 14.457 2.5 13.5714V6.78571C2.5 4.54032 4.18437 2.71429 6.25 2.71429H12.5ZM12.5 0H6.25C2.79813 0 0 3.03796 0 6.78571V13.5714C0 16.5694 2.24125 19 5 19C5 17.4997 6.12063 16.2857 7.5 16.2857H12.5C16.6431 16.2857 20 12.6384 20 8.14286C20 3.64732 16.6431 0 12.5 0Z"
            fill="black" />
    </g>
    <defs>
        <clipPath id="clip0_333_3343">
            <rect width="20" height="19" fill="white" />
        </clipPath>
    </defs>
</svg>