<svg width="25" height="25" viewBox="0 0 25 25" fill="none" xmlns="http://www.w3.org/2000/svg">
    <path
        d="M12.5 10C12.0075 10 11.5199 10.097 11.0649 10.2855C10.61 10.4739 10.1966 10.7501 9.84835 11.0983C9.50013 11.4466 9.22391 11.86 9.03545 12.3149C8.847 12.7699 8.75 13.2575 8.75 13.75C8.75 14.2425 8.847 14.7301 9.03545 15.1851C9.22391 15.64 9.50013 16.0534 9.84835 16.4017C10.1966 16.7499 10.61 17.0261 11.0649 17.2145C11.5199 17.403 12.0075 17.5 12.5 17.5C13.4946 17.5 14.4484 17.1049 15.1517 16.4017C15.8549 15.6984 16.25 14.7446 16.25 13.75C16.25 12.7554 15.8549 11.8016 15.1517 11.0983C14.4484 10.3951 13.4946 10 12.5 10ZM22.5 6.25H19.5C19.2841 6.24015 19.0758 6.16748 18.9006 6.04092C18.7254 5.91435 18.5909 5.73939 18.5138 5.5375L17.7375 3.21125C17.6598 3.00959 17.525 2.83494 17.3496 2.70863C17.1743 2.58232 16.9659 2.50982 16.75 2.5H8.25C7.8375 2.5 7.3925 2.82 7.26375 3.21L6.48625 5.5375C6.40894 5.7393 6.27447 5.91417 6.0993 6.04072C5.92413 6.16727 5.71587 6.23999 5.5 6.25H2.5C1.125 6.25 0 7.375 0 8.75V20C0 21.375 1.125 22.5 2.5 22.5H22.5C23.875 22.5 25 21.375 25 20V8.75C25 7.375 23.875 6.25 22.5 6.25ZM12.5 20C10.8424 20 9.25268 19.3415 8.08058 18.1694C6.90848 16.9973 6.25 15.4076 6.25 13.75C6.25 12.0924 6.90848 10.5027 8.08058 9.33058C9.25268 8.15848 10.8424 7.5 12.5 7.5C14.1576 7.5 15.7473 8.15848 16.9194 9.33058C18.0915 10.5027 18.75 12.0924 18.75 13.75C18.75 15.4076 18.0915 16.9973 16.9194 18.1694C15.7473 19.3415 14.1576 20 12.5 20ZM21.875 10.25C21.6429 10.25 21.4204 10.1578 21.2563 9.99372C21.0922 9.82962 21 9.60706 21 9.375C21 9.14294 21.0922 8.92038 21.2563 8.75628C21.4204 8.59219 21.6429 8.5 21.875 8.5C22.1071 8.5 22.3296 8.59219 22.4937 8.75628C22.6578 8.92038 22.75 9.14294 22.75 9.375C22.75 9.60706 22.6578 9.82962 22.4937 9.99372C22.3296 10.1578 22.1071 10.25 21.875 10.25Z"
        fill="white" />
</svg>