<svg width="37" height="37" viewBox="0 0 37 37" fill="none" xmlns="http://www.w3.org/2000/svg">
    <path
        d="M19.351 34.4483C18.3086 34.4483 17.3543 33.9686 16.7317 33.1316C16.109 32.2947 15.924 31.2433 16.2251 30.2443L18.7896 21.6897H11.0362C10.3542 21.6943 9.68367 21.5145 9.09547 21.1693C8.50727 20.8241 8.0233 20.3263 7.69473 19.7287C7.35789 19.1356 7.18765 18.4626 7.20203 17.7807C7.2164 17.0988 7.41485 16.4335 7.77638 15.8552L15.0131 4.09428C15.3055 3.62428 15.7124 3.23621 16.1958 2.96642C16.6791 2.69663 17.2231 2.55395 17.7766 2.55176C18.8151 2.55176 19.7988 3.05572 20.4074 3.89779C21.016 4.74114 21.1819 5.83327 20.854 6.81952L18.4477 14.0383L26.3147 14.0345C27.6951 14.0345 28.9327 14.7477 29.6255 15.9407C30.3183 17.1336 30.3221 18.5626 29.6383 19.7606L22.1847 32.8024C21.899 33.3019 21.4866 33.7171 20.989 34.0061C20.4914 34.2951 19.9264 34.4477 19.351 34.4483ZM17.7766 5.10348C17.6585 5.10389 17.5424 5.13431 17.4393 5.19189C17.3362 5.24947 17.2494 5.33232 17.1871 5.43265L9.95045 17.1923C9.82917 17.3848 9.7626 17.6067 9.75788 17.8341C9.75315 18.0616 9.81047 18.2861 9.92366 18.4834C10.0318 18.6836 10.1926 18.8504 10.3887 18.9657C10.5848 19.0811 10.8087 19.1407 11.0362 19.138H18.7896C19.1876 19.136 19.5805 19.2282 19.9361 19.4069C20.2917 19.5856 20.6001 19.8458 20.8361 20.1663C21.3222 20.8196 21.4677 21.6425 21.2342 22.422L18.6671 30.978C18.6342 31.0842 18.6269 31.1967 18.646 31.3063C18.6651 31.4159 18.7099 31.5194 18.7769 31.6082C18.8476 31.7034 18.9409 31.7794 19.0483 31.8296C19.1557 31.8797 19.2739 31.9023 19.3923 31.8953C19.5106 31.8883 19.6254 31.8521 19.7262 31.7897C19.827 31.7273 19.9107 31.6409 19.9698 31.5381L27.4234 18.4949C27.7526 17.9195 27.5293 17.413 27.4196 17.2216C27.3098 17.0302 26.9781 16.5862 26.3147 16.5862H18.4464C18.0423 16.5853 17.6442 16.4886 17.2847 16.304C16.9252 16.1195 16.6146 15.8523 16.3783 15.5245C16.142 15.1967 15.9868 14.8176 15.9254 14.4182C15.8639 14.0188 15.898 13.6106 16.0248 13.2269L18.4298 6.0119C18.4656 5.90814 18.4756 5.79724 18.4589 5.68876C18.4422 5.58029 18.3994 5.4775 18.3341 5.38928C18.2716 5.29972 18.1881 5.22684 18.0909 5.17702C17.9937 5.1272 17.8858 5.10195 17.7766 5.10348Z"
        fill="white" />
</svg>