<svg width="23" height="24" viewBox="0 0 23 24" fill="none" xmlns="http://www.w3.org/2000/svg">
    <path
        d="M11.5 22C10.1743 22 8.92848 21.7375 7.76251 21.2125C6.59653 20.6875 5.5823 19.975 4.7198 19.075C3.8573 18.175 3.17448 17.1167 2.67136 15.9C2.16823 14.6833 1.91667 13.3833 1.91667 12C1.91667 10.6167 2.16823 9.31667 2.67136 8.1C3.17448 6.88333 3.8573 5.825 4.7198 4.925C5.5823 4.025 6.59653 3.3125 7.76251 2.7875C8.92848 2.2625 10.1743 2 11.5 2C12.8257 2 14.0715 2.2625 15.2375 2.7875C16.4035 3.3125 17.4177 4.025 18.2802 4.925C19.1427 5.825 19.8255 6.88333 20.3286 8.1C20.8318 9.31667 21.0833 10.6167 21.0833 12V13.325C21.0833 14.2583 20.7679 15.0458 20.137 15.6875C19.5061 16.3292 18.7354 16.65 17.825 16.65C17.25 16.65 16.7069 16.5042 16.1958 16.2125C15.6847 15.9208 15.2934 15.5083 15.0219 14.975C14.6066 15.5417 14.0875 15.9625 13.4646 16.2375C12.8417 16.5125 12.1868 16.65 11.5 16.65C10.2542 16.65 9.19601 16.2 8.32553 15.3C7.45504 14.4 7.0198 13.3 7.0198 12C7.0198 10.7 7.45504 9.59167 8.32553 8.675C9.19601 7.75833 10.2542 7.3 11.5 7.3C12.7458 7.3 13.804 7.75833 14.6745 8.675C15.545 9.59167 15.9802 10.7 15.9802 12V13.325C15.9802 13.8417 16.1599 14.275 16.5193 14.625C16.8786 14.975 17.3139 15.15 17.825 15.15C18.3201 15.15 18.7474 14.975 19.1068 14.625C19.4662 14.275 19.6458 13.8417 19.6458 13.325V12C19.6458 9.63333 18.8552 7.625 17.274 5.975C15.6927 4.325 13.7681 3.5 11.5 3.5C9.23195 3.5 7.3073 4.325 5.72605 5.975C4.1448 7.625 3.35417 9.63333 3.35417 12C3.35417 14.3667 4.1448 16.375 5.72605 18.025C7.3073 19.675 9.23195 20.5 11.5 20.5H16.6271V22H11.5ZM11.5 15.15C12.3465 15.15 13.0653 14.8458 13.6563 14.2375C14.2472 13.6292 14.5427 12.8833 14.5427 12C14.5427 11.1 14.2472 10.3417 13.6563 9.725C13.0653 9.10833 12.3465 8.8 11.5 8.8C10.6535 8.8 9.93473 9.10833 9.34375 9.725C8.75278 10.3417 8.4573 11.1 8.4573 12C8.4573 12.8833 8.75278 13.6292 9.34375 14.2375C9.93473 14.8458 10.6535 15.15 11.5 15.15Z"
        fill="#E66137" />
</svg>