<svg width="27" height="19" viewBox="0 0 27 19" fill="none" xmlns="http://www.w3.org/2000/svg">
    <path
        d="M9.44999 11.8125C6.291 11.8125 0 13.392 0 16.5375V18.9H18.9V16.5375C18.9 13.392 12.609 11.8125 9.44999 11.8125ZM3.159 16.2C4.293 15.417 7.03349 14.5125 9.44999 14.5125C11.8665 14.5125 14.607 15.417 15.741 16.2H3.159ZM9.44999 9.44999C12.0555 9.44999 14.175 7.33049 14.175 4.725C14.175 2.1195 12.0555 0 9.44999 0C6.8445 0 4.725 2.1195 4.725 4.725C4.725 7.33049 6.8445 9.44999 9.44999 9.44999ZM9.44999 2.7C10.5705 2.7 11.475 3.6045 11.475 4.725C11.475 5.8455 10.5705 6.75 9.44999 6.75C8.32949 6.75 7.42499 5.8455 7.42499 4.725C7.42499 3.6045 8.32949 2.7 9.44999 2.7ZM18.954 11.8935C20.52 13.0275 21.6 14.5395 21.6 16.5375V18.9H27V16.5375C27 13.8105 22.275 12.258 18.954 11.8935ZM17.55 9.44999C20.1555 9.44999 22.275 7.33049 22.275 4.725C22.275 2.1195 20.1555 0 17.55 0C16.821 0 16.146 0.1755 15.525 0.4725C16.3755 1.674 16.875 3.1455 16.875 4.725C16.875 6.3045 16.3755 7.77599 15.525 8.97749C16.146 9.27449 16.821 9.44999 17.55 9.44999Z"
        fill="white" fill-opacity="0.5" />
</svg>