<svg width="15" height="15" viewBox="0 0 15 15" fill="none" xmlns="http://www.w3.org/2000/svg">
    <path
        d="M15 7.61006C15 6.99795 14.949 6.55128 14.8385 6.08806H7.65315V8.85081H11.8708C11.7858 9.53739 11.3266 10.5714 10.3062 11.2662L10.2919 11.3587L12.5637 13.0707L12.7211 13.086C14.1667 11.7873 15 9.87652 15 7.61006Z"
        fill="white" />
    <path
        d="M7.65324 14.8892C9.71952 14.8892 11.4542 14.2274 12.7212 13.0859L10.3063 11.2661C9.66002 11.7045 8.79266 12.0105 7.65324 12.0105C5.62947 12.0105 3.91181 10.7119 3.29951 8.91693L3.20976 8.92435L0.847452 10.7028L0.816558 10.7863C2.07504 13.2182 4.66005 14.8892 7.65324 14.8892Z"
        fill="white" />
    <path
        d="M3.29925 8.91702C3.13769 8.4538 3.04419 7.95746 3.04419 7.44463C3.04419 6.93175 3.13769 6.43546 3.29075 5.97225L3.28647 5.87359L0.894558 4.06659L0.816299 4.1028C0.297619 5.11197 0 6.24523 0 7.44463C0 8.64404 0.297619 9.77724 0.816299 10.7864L3.29925 8.91702Z"
        fill="white" />
    <path
        d="M7.65324 2.87857C9.09028 2.87857 10.0596 3.4824 10.6124 3.98702L12.7722 1.9356C11.4457 0.736193 9.71952 0 7.65324 0C4.66005 0 2.07504 1.67089 0.816558 4.10278L3.29101 5.97223C3.91181 4.17725 5.62947 2.87857 7.65324 2.87857Z"
        fill="white" />
</svg>