<svg width="32" height="32" viewBox="0 0 32 32" fill="none" xmlns="http://www.w3.org/2000/svg">
    <g clip-path="url(#clip0_1209_2238)">
        <path
            d="M12.0001 18.3332C8.88008 18.3332 2.66675 19.8932 2.66675 22.9998V25.3332H21.3334V22.9998C21.3334 19.8932 15.1201 18.3332 12.0001 18.3332ZM5.78675 22.6665C6.90675 21.8932 9.61341 20.9998 12.0001 20.9998C14.3867 20.9998 17.0934 21.8932 18.2134 22.6665H5.78675ZM12.0001 15.9998C14.5734 15.9998 16.6667 13.9065 16.6667 11.3332C16.6667 8.75984 14.5734 6.6665 12.0001 6.6665C9.42675 6.6665 7.33342 8.75984 7.33342 11.3332C7.33342 13.9065 9.42675 15.9998 12.0001 15.9998ZM12.0001 9.33317C13.1067 9.33317 14.0001 10.2265 14.0001 11.3332C14.0001 12.4398 13.1067 13.3332 12.0001 13.3332C10.8934 13.3332 10.0001 12.4398 10.0001 11.3332C10.0001 10.2265 10.8934 9.33317 12.0001 9.33317ZM21.3867 18.4132C22.9334 19.5332 24.0001 21.0265 24.0001 22.9998V25.3332H29.3334V22.9998C29.3334 20.3065 24.6667 18.7732 21.3867 18.4132ZM20.0001 15.9998C22.5734 15.9998 24.6667 13.9065 24.6667 11.3332C24.6667 8.75984 22.5734 6.6665 20.0001 6.6665C19.2801 6.6665 18.6134 6.83984 18.0001 7.13317C18.8401 8.31984 19.3334 9.77317 19.3334 11.3332C19.3334 12.8932 18.8401 14.3465 18.0001 15.5332C18.6134 15.8265 19.2801 15.9998 20.0001 15.9998Z"
            fill="black" />
    </g>
    <defs>
        <clipPath id="clip0_1209_2238">
            <rect width="32" height="32" fill="white" />
        </clipPath>
    </defs>
</svg>