<svg width="24" height="24" viewBox="0 0 24 24" fill="none" xmlns="http://www.w3.org/2000/svg">
    <path
        d="M11.9846 24.0004C10.3467 24.0004 8.79872 23.6854 7.34059 23.0554C5.88246 22.4254 4.60909 21.5654 3.52049 20.4754C2.43188 19.3853 1.57298 18.1103 0.94379 16.6503C0.314597 15.1903 0 13.6402 0 12.0002C0 10.3402 0.314597 8.78016 0.94379 7.32013C1.57298 5.86011 2.43188 4.59008 3.52049 3.51006C4.60909 2.43004 5.88246 1.57503 7.34059 0.945017C8.79872 0.315006 10.3467 0 11.9846 0C13.6425 0 15.2005 0.315006 16.6586 0.945017C18.1168 1.57503 19.3852 2.43004 20.4638 3.51006C21.5424 4.59008 22.3963 5.86011 23.0255 7.32013C23.6547 8.78016 23.9693 10.3402 23.9693 12.0002C23.9693 13.6402 23.6547 15.1903 23.0255 16.6503C22.3963 18.1103 21.5424 19.3853 20.4638 20.4754C19.3852 21.5654 18.1168 22.4254 16.6586 23.0554C15.2005 23.6854 13.6425 24.0004 11.9846 24.0004ZM11.9846 22.2004C14.821 22.2004 17.2279 21.2054 19.2054 19.2153C21.1828 17.2253 22.1716 14.8203 22.1716 12.0002C22.1716 9.16016 21.1828 6.75012 19.2054 4.77009C17.2279 2.79005 14.821 1.80003 11.9846 1.80003C9.16825 1.80003 6.76633 2.79005 4.77887 4.77009C2.79142 6.75012 1.7977 9.16016 1.7977 12.0002C1.7977 14.8203 2.79142 17.2253 4.77887 19.2153C6.76633 21.2054 9.16825 22.2004 11.9846 22.2004Z"
        fill="#E66137" />
</svg>