<svg width="8" height="8" viewBox="0 0 8 8" fill="none" xmlns="http://www.w3.org/2000/svg">
    <path
        d="M4.00008 5.25004C3.60564 5.25004 3.27091 5.11254 2.99591 4.83754C2.72091 4.56254 2.58341 4.22782 2.58341 3.83337C2.58341 3.43893 2.72091 3.10421 2.99591 2.82921C3.27091 2.55421 3.60564 2.41671 4.00008 2.41671C4.39453 2.41671 4.72925 2.55421 5.00425 2.82921C5.27925 3.10421 5.41675 3.43893 5.41675 3.83337C5.41675 4.22782 5.27925 4.56254 5.00425 4.83754C4.72925 5.11254 4.39453 5.25004 4.00008 5.25004ZM4.00008 4.76671C4.26119 4.76671 4.48203 4.67643 4.66258 4.49587C4.84314 4.31532 4.93341 4.09449 4.93341 3.83337C4.93341 3.57226 4.84314 3.35143 4.66258 3.17087C4.48203 2.99032 4.26119 2.90004 4.00008 2.90004C3.73897 2.90004 3.51814 2.99032 3.33758 3.17087C3.15703 3.35143 3.06675 3.57226 3.06675 3.83337C3.06675 4.09449 3.15703 4.31532 3.33758 4.49587C3.51814 4.67643 3.73897 4.76671 4.00008 4.76671ZM4.00008 6.33337C4.81119 6.33337 5.54453 6.10282 6.20008 5.64171C6.85564 5.1806 7.34453 4.57782 7.66675 3.83337C7.34453 3.08893 6.85564 2.48615 6.20008 2.02504C5.54453 1.56393 4.81119 1.33337 4.00008 1.33337C3.18897 1.33337 2.45564 1.56393 1.80008 2.02504C1.14453 2.48615 0.655637 3.08893 0.333415 3.83337C0.655637 4.57782 1.14453 5.1806 1.80008 5.64171C2.45564 6.10282 3.18897 6.33337 4.00008 6.33337Z"
        fill="#E66137" fill-opacity="0.84" />
</svg>