<svg width="22" height="22" viewBox="0 0 22 22" fill="none" xmlns="http://www.w3.org/2000/svg">
    <path
        d="M11 18.7918C11.8708 18.7918 12.7226 18.6505 13.5552 18.3679C14.3878 18.0852 15.1479 17.6766 15.8354 17.1418C15.1174 16.6377 14.3496 16.229 13.5323 15.9158C12.7149 15.6026 11.8708 15.446 11 15.446C10.1292 15.446 9.28506 15.6026 8.4677 15.9158C7.65034 16.229 6.88263 16.6377 6.16458 17.1418C6.85208 17.6766 7.61215 18.0852 8.44479 18.3679C9.27743 18.6505 10.1292 18.7918 11 18.7918ZM12.9708 11.0231L11.9854 10.0377C12.2451 9.86961 12.4399 9.65572 12.5698 9.396C12.6996 9.13627 12.7646 8.85363 12.7646 8.54808C12.7646 8.05919 12.5927 7.64287 12.249 7.29912C11.9052 6.95537 11.4889 6.7835 11 6.7835C10.6944 6.7835 10.4118 6.84843 10.1521 6.97829C9.89236 7.10815 9.67847 7.30294 9.51041 7.56266L8.525 6.57725C8.83055 6.1953 9.19722 5.90502 9.625 5.70641C10.0528 5.5078 10.5111 5.4085 11 5.4085C11.8708 5.4085 12.6118 5.71405 13.2229 6.32516C13.834 6.93627 14.1396 7.67725 14.1396 8.54808C14.1396 9.03697 14.0403 9.4953 13.8417 9.92308C13.6431 10.3509 13.3528 10.7175 12.9708 11.0231ZM18.3792 16.4314L17.4396 15.4918C17.8826 14.8196 18.2187 14.1054 18.4479 13.3491C18.6771 12.5929 18.7917 11.8099 18.7917 11.0002C18.7917 8.83072 18.0354 6.98975 16.5229 5.47725C15.0104 3.96475 13.1694 3.2085 11 3.2085C10.1903 3.2085 9.40729 3.32308 8.65104 3.55225C7.89479 3.78141 7.18819 4.12516 6.53125 4.5835L5.56875 3.621C6.36319 3.04044 7.22256 2.59738 8.14687 2.29183C9.07118 1.98627 10.0222 1.8335 11 1.8335C12.2681 1.8335 13.4597 2.07412 14.575 2.55537C15.6903 3.03662 16.6604 3.68975 17.4854 4.51475C18.3104 5.33975 18.9635 6.30989 19.4448 7.42516C19.926 8.54044 20.1667 9.73211 20.1667 11.0002C20.1667 11.9779 20.0139 12.929 19.7083 13.8533C19.4028 14.7776 18.9597 15.637 18.3792 16.4314ZM11 20.1668C9.73194 20.1668 8.54027 19.9262 7.425 19.445C6.30972 18.9637 5.33958 18.3106 4.51458 17.4856C3.68958 16.6606 3.03645 15.6904 2.5552 14.5752C2.07395 13.4599 1.83333 12.2682 1.83333 11.0002C1.83333 10.0224 1.98229 9.07134 2.2802 8.14704C2.57812 7.22273 3.01736 6.371 3.59791 5.59183L1.07708 3.04808C0.939578 2.91058 0.874648 2.74634 0.882286 2.55537C0.889925 2.3644 0.962495 2.20016 1.09999 2.06266C1.23749 1.92516 1.40173 1.85641 1.5927 1.85641C1.78368 1.85641 1.94791 1.92516 2.08541 2.06266L19.5937 19.5939C19.7312 19.7314 19.7962 19.8956 19.7885 20.0866C19.7809 20.2776 19.7083 20.4418 19.5708 20.5793C19.4333 20.7168 19.2729 20.7856 19.0896 20.7856C18.9062 20.7856 18.7458 20.7168 18.6083 20.5793L4.56041 6.55433C4.10208 7.21127 3.76215 7.91787 3.54062 8.67412C3.31909 9.43037 3.20833 10.2057 3.20833 11.0002C3.20833 11.9474 3.37256 12.8602 3.70104 13.7387C4.02951 14.6172 4.49166 15.4231 5.0875 16.1564C5.97361 15.5453 6.91319 15.045 7.90625 14.6554C8.8993 14.2658 9.93055 14.071 11 14.071C11.7028 14.071 12.3865 14.155 13.051 14.3231C13.7156 14.4911 14.3687 14.7279 15.0104 15.0335L17.4625 17.4856C16.5917 18.3564 15.6024 19.021 14.4948 19.4793C13.3871 19.9377 12.2222 20.1668 11 20.1668Z"
        fill="#E66137" />
</svg>