<svg width="28" height="25" viewBox="0 0 28 25" fill="none" xmlns="http://www.w3.org/2000/svg" transform="rotate(90)">
    <path
        d="M4.725 20.3641C4.43333 20.4683 4.15625 20.4466 3.89375 20.299C3.63125 20.1515 3.5 19.9388 3.5 19.661V15.0516C3.5 14.8607 3.56319 14.6957 3.68958 14.5568C3.81597 14.418 3.97639 14.3311 4.17083 14.2964L12.3083 12.4996L4.17083 10.6506C3.97639 10.6159 3.81597 10.5291 3.68958 10.3902C3.56319 10.2513 3.5 10.0864 3.5 9.89538V5.33809C3.5 5.06032 3.63125 4.84764 3.89375 4.70007C4.15625 4.5525 4.43333 4.5308 4.725 4.63497L23.7417 11.7704C24.0917 11.9093 24.2667 12.1523 24.2667 12.4996C24.2667 12.8468 24.0917 13.0898 23.7417 13.2287L4.725 20.3641Z"
        fill="#E66137" transform="rotate(14 12.5)"/>
</svg>