<svg width="27" height="27" viewBox="0 0 27 27" fill="none" xmlns="http://www.w3.org/2000/svg">
    <path
        d="M8.99997 12.375C8.77747 12.375 8.55996 12.441 8.37496 12.5646C8.18995 12.6882 8.04576 12.8639 7.96061 13.0695C7.87546 13.275 7.85318 13.5012 7.89659 13.7195C7.94 13.9377 8.04714 14.1382 8.20448 14.2955C8.36181 14.4528 8.56227 14.56 8.78049 14.6034C8.99872 14.6468 9.22492 14.6245 9.43049 14.5394C9.63606 14.4542 9.81176 14.31 9.93537 14.125C10.059 13.94 10.125 13.7225 10.125 13.5C10.125 13.2016 10.0064 12.9155 9.79547 12.7045C9.58449 12.4935 9.29834 12.375 8.99997 12.375ZM13.5 12.375C13.2775 12.375 13.06 12.441 12.875 12.5646C12.6899 12.6882 12.5458 12.8639 12.4606 13.0695C12.3755 13.275 12.3532 13.5012 12.3966 13.7195C12.44 13.9377 12.5471 14.1382 12.7045 14.2955C12.8618 14.4528 13.0623 14.56 13.2805 14.6034C13.4987 14.6468 13.7249 14.6245 13.9305 14.5394C14.1361 14.4542 14.3118 14.31 14.4354 14.125C14.559 13.94 14.625 13.7225 14.625 13.5C14.625 13.2016 14.5064 12.9155 14.2955 12.7045C14.0845 12.4935 13.7983 12.375 13.5 12.375ZM18 12.375C17.7775 12.375 17.56 12.441 17.375 12.5646C17.1899 12.6882 17.0458 12.8639 16.9606 13.0695C16.8755 13.275 16.8532 13.5012 16.8966 13.7195C16.94 13.9377 17.0471 14.1382 17.2045 14.2955C17.3618 14.4528 17.5623 14.56 17.7805 14.6034C17.9987 14.6468 18.2249 14.6245 18.4305 14.5394C18.6361 14.4542 18.8118 14.31 18.9354 14.125C19.059 13.94 19.125 13.7225 19.125 13.5C19.125 13.2016 19.0064 12.9155 18.7955 12.7045C18.5845 12.4935 18.2983 12.375 18 12.375ZM13.5 2.25C12.0226 2.25 10.5597 2.54099 9.19478 3.10636C7.82987 3.67172 6.58968 4.50039 5.54502 5.54505C3.43524 7.65483 2.24997 10.5163 2.24997 13.5C2.24014 16.0978 3.13961 18.6171 4.79247 20.6213L2.54247 22.8713C2.38637 23.0295 2.28062 23.2303 2.23858 23.4486C2.19653 23.6668 2.22007 23.8926 2.30622 24.0975C2.39966 24.2999 2.55114 24.47 2.74142 24.5862C2.93171 24.7024 3.15222 24.7594 3.37497 24.75H13.5C16.4837 24.75 19.3451 23.5647 21.4549 21.455C23.5647 19.3452 24.75 16.4837 24.75 13.5C24.75 10.5163 23.5647 7.65483 21.4549 5.54505C19.3451 3.43526 16.4837 2.25 13.5 2.25ZM13.5 22.5H6.08622L7.13247 21.4538C7.23877 21.3496 7.32334 21.2253 7.38127 21.0882C7.4392 20.9511 7.46935 20.8038 7.46997 20.655C7.46574 20.3583 7.34444 20.0752 7.13247 19.8675C5.65938 18.396 4.74204 16.4594 4.53675 14.3874C4.33145 12.3154 4.85091 10.2364 6.0066 8.50446C7.1623 6.77254 8.88274 5.4949 10.8748 4.88922C12.8669 4.28354 15.0073 4.38728 16.9315 5.18278C18.8556 5.97828 20.4444 7.41631 21.4272 9.25188C22.41 11.0874 22.726 13.207 22.3212 15.2494C21.9165 17.2918 20.8162 19.1307 19.2077 20.4528C17.5992 21.7749 15.5821 22.4984 13.5 22.5Z"
        fill="white" />
</svg>