<svg width="23" height="23" viewBox="0 0 23 23" fill="none" xmlns="http://www.w3.org/2000/svg">
    <path fill-rule="evenodd" clip-rule="evenodd"
        d="M21.6895 2.55798H20.1967C19.9331 1.81001 19.4443 1.16231 18.7976 0.704168C18.151 0.246027 17.3783 0 16.5861 0C15.7939 0 15.0212 0.246027 14.3745 0.704168C13.7278 1.16231 13.239 1.81001 12.9754 2.55798H1.27585C0.937475 2.55798 0.612957 2.69257 0.373688 2.93213C0.13442 3.1717 0 3.49661 0 3.83541C0 4.1742 0.13442 4.49912 0.373688 4.73869C0.612957 4.97825 0.937475 5.11284 1.27585 5.11284H12.9754C13.239 5.86081 13.7278 6.50851 14.3745 6.96665C15.0212 7.42479 15.7939 7.67082 16.5861 7.67082C17.3783 7.67082 18.151 7.42479 18.7976 6.96665C19.4443 6.50851 19.9331 5.86081 20.1967 5.11284H21.6895C22.0279 5.11284 22.3524 4.97825 22.5916 4.73869C22.8309 4.49912 22.9653 4.1742 22.9653 3.83541C22.9653 3.49661 22.8309 3.1717 22.5916 2.93213C22.3524 2.69257 22.0279 2.55798 21.6895 2.55798ZM16.5861 5.11284C16.9244 5.11284 17.249 4.97825 17.4882 4.73869C17.7275 4.49912 17.8619 4.1742 17.8619 3.83541C17.8619 3.49661 17.7275 3.1717 17.4882 2.93213C17.249 2.69257 16.9244 2.55798 16.5861 2.55798C16.2477 2.55798 15.9232 2.69257 15.6839 2.93213C15.4446 3.1717 15.3102 3.49661 15.3102 3.83541C15.3102 4.1742 15.4446 4.49912 15.6839 4.73869C15.9232 4.97825 16.2477 5.11284 16.5861 5.11284ZM0 11.5C0 11.1612 0.13442 10.8363 0.373688 10.5967C0.612957 10.3571 0.937475 10.2225 1.27585 10.2225H2.7686C3.03219 9.47457 3.52102 8.82687 4.1677 8.36873C4.81437 7.91058 5.58706 7.66456 6.37926 7.66456C7.17145 7.66456 7.94414 7.91058 8.59082 8.36873C9.2375 8.82687 9.72632 9.47457 9.98992 10.2225H21.6895C22.0279 10.2225 22.3524 10.3571 22.5916 10.5967C22.8309 10.8363 22.9653 11.1612 22.9653 11.5C22.9653 11.8388 22.8309 12.1637 22.5916 12.4032C22.3524 12.6428 22.0279 12.7774 21.6895 12.7774H9.98992C9.72632 13.5254 9.2375 14.1731 8.59082 14.6312C7.94414 15.0893 7.17145 15.3354 6.37926 15.3354C5.58706 15.3354 4.81437 15.0893 4.1677 14.6312C3.52102 14.1731 3.03219 13.5254 2.7686 12.7774H1.27585C0.937475 12.7774 0.612957 12.6428 0.373688 12.4032C0.13442 12.1637 0 11.8388 0 11.5ZM6.37926 12.7774C6.71764 12.7774 7.04215 12.6428 7.28142 12.4032C7.52069 12.1637 7.65511 11.8388 7.65511 11.5C7.65511 11.1612 7.52069 10.8363 7.28142 10.5967C7.04215 10.3571 6.71764 10.2225 6.37926 10.2225C6.04088 10.2225 5.71636 10.3571 5.47709 10.5967C5.23783 10.8363 5.10341 11.1612 5.10341 11.5C5.10341 11.8388 5.23783 12.1637 5.47709 12.4032C5.71636 12.6428 6.04088 12.7774 6.37926 12.7774ZM1.27585 17.8871C0.937475 17.8871 0.612957 18.0217 0.373688 18.2612C0.13442 18.5008 0 18.8257 0 19.1645C0 19.5033 0.13442 19.8282 0.373688 20.0678C0.612957 20.3074 0.937475 20.442 1.27585 20.442H12.9754C13.239 21.1899 13.7278 21.8376 14.3745 22.2958C15.0212 22.7539 15.7939 22.9999 16.5861 22.9999C17.3783 22.9999 18.151 22.7539 18.7976 22.2958C19.4443 21.8376 19.9331 21.1899 20.1967 20.442H21.6895C22.0279 20.442 22.3524 20.3074 22.5916 20.0678C22.8309 19.8282 22.9653 19.5033 22.9653 19.1645C22.9653 18.8257 22.8309 18.5008 22.5916 18.2612C22.3524 18.0217 22.0279 17.8871 21.6895 17.8871H20.1967C19.9331 17.1391 19.4443 16.4914 18.7976 16.0333C18.151 15.5751 17.3783 15.3291 16.5861 15.3291C15.7939 15.3291 15.0212 15.5751 14.3745 16.0333C13.7278 16.4914 13.239 17.1391 12.9754 17.8871H1.27585ZM17.8619 19.1645C17.8619 19.5033 17.7275 19.8282 17.4882 20.0678C17.249 20.3074 16.9244 20.442 16.5861 20.442C16.2477 20.442 15.9232 20.3074 15.6839 20.0678C15.4446 19.8282 15.3102 19.5033 15.3102 19.1645C15.3102 18.8257 15.4446 18.5008 15.6839 18.2612C15.9232 18.0217 16.2477 17.8871 16.5861 17.8871C16.9244 17.8871 17.249 18.0217 17.4882 18.2612C17.7275 18.5008 17.8619 18.8257 17.8619 19.1645Z"
        fill="#E66137" />
</svg>