<svg width="19" height="19" viewBox="0 0 19 19" fill="none" xmlns="http://www.w3.org/2000/svg">
    <path fill-rule="evenodd" clip-rule="evenodd"
        d="M8.70825 1.58337C12.6413 1.58337 15.8333 4.77537 15.8333 8.70837C15.8333 12.6414 12.6413 15.8334 8.70825 15.8334C4.77525 15.8334 1.58325 12.6414 1.58325 8.70837C1.58325 4.77537 4.77525 1.58337 8.70825 1.58337ZM8.70825 14.25C11.7696 14.25 14.2499 11.7697 14.2499 8.70837C14.2499 5.64621 11.7696 3.16671 8.70825 3.16671C5.64609 3.16671 3.16659 5.64621 3.16659 8.70837C3.16659 11.7697 5.64609 14.25 8.70825 14.25ZM17.6652 16.5451L15.4255 14.3062L14.3061 15.4257L16.545 17.6653L17.6652 16.5451Z"
        fill="#E66137" />
</svg>