<svg width="23" height="23" viewBox="0 0 23 23" fill="none" xmlns="http://www.w3.org/2000/svg">
    <path
        d="M3.35419 20.1248C2.97085 20.1248 2.63544 19.9811 2.34794 19.6936C2.06044 19.4061 1.91669 19.0707 1.91669 18.6873V6.87588C1.91669 6.49255 2.06044 6.15713 2.34794 5.86963C2.63544 5.58213 2.97085 5.43838 3.35419 5.43838H7.90627V3.354C7.90627 2.98664 8.05002 2.65522 8.33752 2.35973C8.62502 2.06425 8.96044 1.9165 9.34377 1.9165H13.6563C14.0396 1.9165 14.375 2.06425 14.6625 2.35973C14.95 2.65522 15.0938 2.98664 15.0938 3.354V5.43838H19.6459C20.0292 5.43838 20.3646 5.58213 20.6521 5.86963C20.9396 6.15713 21.0834 6.49255 21.0834 6.87588V12.578C20.8597 12.4023 20.6321 12.2425 20.4005 12.0988C20.1689 11.955 19.9174 11.8193 19.6459 11.6915V6.87588H3.35419V18.6993V18.6873H11.3563C11.4202 18.9429 11.5 19.1905 11.5959 19.43C11.6917 19.6696 11.8035 19.9012 11.9313 20.1248H3.35419ZM9.34377 5.43838H13.6563V3.354H9.34377V5.43838ZM17.25 21.8738C15.9882 21.8738 14.9021 21.4186 13.9917 20.5082C13.0813 19.5978 12.6261 18.5116 12.6261 17.2498C12.6261 15.988 13.0813 14.9019 13.9917 13.9915C14.9021 13.0811 15.9882 12.6259 17.25 12.6259C18.5118 12.6259 19.5979 13.0811 20.5084 13.9915C21.4188 14.9019 21.874 15.988 21.874 17.2498C21.874 18.5116 21.4188 19.5978 20.5084 20.5082C19.5979 21.4186 18.5118 21.8738 17.25 21.8738ZM19.0229 19.6696L19.6698 19.0228L17.6573 17.2019V14.2311H16.6511V17.4894L19.0229 19.6696Z"
        fill="#E66137" />
</svg>