<svg width="24" height="24" viewBox="0 0 24 24" fill="none" xmlns="http://www.w3.org/2000/svg">
    <path
        d="M12 22C10.6333 22 9.34167 21.7375 8.125 21.2125C6.90833 20.6875 5.84583 19.9708 4.9375 19.0625C4.02917 18.1542 3.3125 17.0917 2.7875 15.875C2.2625 14.6583 2 13.3667 2 12C2 10.6167 2.2625 9.31667 2.7875 8.1C3.3125 6.88333 4.02917 5.825 4.9375 4.925C5.84583 4.025 6.90833 3.3125 8.125 2.7875C9.34167 2.2625 10.6333 2 12 2C12.7667 2 13.5042 2.08333 14.2125 2.25C14.9208 2.41667 15.6 2.65 16.25 2.95V4.625C15.6167 4.25833 14.9458 3.97917 14.2375 3.7875C13.5292 3.59583 12.7833 3.5 12 3.5C9.65 3.5 7.64583 4.325 5.9875 5.975C4.32917 7.625 3.5 9.63333 3.5 12C3.5 14.35 4.32917 16.3542 5.9875 18.0125C7.64583 19.6708 9.65 20.5 12 20.5C14.3667 20.5 16.375 19.6708 18.025 18.0125C19.675 16.3542 20.5 14.35 20.5 12C20.5 11.4167 20.4458 10.8542 20.3375 10.3125C20.2292 9.77083 20.0667 9.25 19.85 8.75H21.45C21.6333 9.26667 21.7708 9.79167 21.8625 10.325C21.9542 10.8583 22 11.4167 22 12C22 13.3667 21.7375 14.6583 21.2125 15.875C20.6875 17.0917 19.975 18.1542 19.075 19.0625C18.175 19.9708 17.1167 20.6875 15.9 21.2125C14.6833 21.7375 13.3833 22 12 22ZM15.65 10.675C16.0333 10.675 16.3542 10.5458 16.6125 10.2875C16.8708 10.0292 17 9.70833 17 9.325C17 8.94167 16.8708 8.62083 16.6125 8.3625C16.3542 8.10417 16.0333 7.975 15.65 7.975C15.2667 7.975 14.9458 8.10417 14.6875 8.3625C14.4292 8.62083 14.3 8.94167 14.3 9.325C14.3 9.70833 14.4292 10.0292 14.6875 10.2875C14.9458 10.5458 15.2667 10.675 15.65 10.675ZM8.35 10.675C8.73333 10.675 9.05417 10.5458 9.3125 10.2875C9.57083 10.0292 9.7 9.70833 9.7 9.325C9.7 8.94167 9.57083 8.62083 9.3125 8.3625C9.05417 8.10417 8.73333 7.975 8.35 7.975C7.96667 7.975 7.64583 8.10417 7.3875 8.3625C7.12917 8.62083 7 8.94167 7 9.325C7 9.70833 7.12917 10.0292 7.3875 10.2875C7.64583 10.5458 7.96667 10.675 8.35 10.675ZM12 17.475C13.1 17.475 14.1125 17.1792 15.0375 16.5875C15.9625 15.9958 16.6333 15.1917 17.05 14.175H6.95C7.38333 15.1917 8.05833 15.9958 8.975 16.5875C9.89167 17.1792 10.9 17.475 12 17.475ZM20.25 7V4.75H18V3.25H20.25V1H21.75V3.25H24V4.75H21.75V7H20.25Z"
        fill="#E66137" />
</svg>