<svg width="20" height="21" viewBox="0 0 20 21" fill="none" xmlns="http://www.w3.org/2000/svg">
    <path
        d="M1.41667 17.4999C1.23612 17.4999 1.08681 17.4379 0.968755 17.314C0.8507 17.19 0.791672 17.0332 0.791672 16.8437V15.4437C0.791672 14.9332 0.916672 14.4702 1.16667 14.0546C1.41667 13.639 1.76389 13.3291 2.20834 13.1249C3.22223 12.6582 4.13542 12.3228 4.94792 12.1187C5.76042 11.9145 6.59723 11.8124 7.45834 11.8124C8.31945 11.8124 9.15278 11.9145 9.95834 12.1187C10.7639 12.3228 11.6736 12.6582 12.6875 13.1249C13.132 13.3291 13.4826 13.639 13.7396 14.0546C13.9965 14.4702 14.125 14.9332 14.125 15.4437V16.8437C14.125 17.0332 14.066 17.19 13.9479 17.314C13.8299 17.4379 13.6806 17.4999 13.5 17.4999H1.41667ZM14.9167 17.4999C15.0556 17.4707 15.1667 17.3942 15.25 17.2702C15.3333 17.1463 15.375 16.9895 15.375 16.7999V15.4437C15.375 14.5249 15.1528 13.7702 14.7083 13.1796C14.2639 12.589 13.6806 12.1114 12.9583 11.7468C13.9167 11.8634 14.8194 12.0348 15.6667 12.2608C16.5139 12.4869 17.2014 12.7457 17.7292 13.0374C18.1875 13.3145 18.5486 13.6572 18.8125 14.0655C19.0764 14.4739 19.2083 14.9332 19.2083 15.4437V16.8437C19.2083 17.0332 19.1493 17.19 19.0313 17.314C18.9132 17.4379 18.7639 17.4999 18.5833 17.4999H14.9167ZM7.45834 10.478C6.54167 10.478 5.79167 10.1718 5.20834 9.55928C4.62501 8.94678 4.33334 8.15928 4.33334 7.19678C4.33334 6.23428 4.62501 5.44678 5.20834 4.83428C5.79167 4.22178 6.54167 3.91553 7.45834 3.91553C8.37501 3.91553 9.12501 4.22178 9.70834 4.83428C10.2917 5.44678 10.5833 6.23428 10.5833 7.19678C10.5833 8.15928 10.2917 8.94678 9.70834 9.55928C9.12501 10.1718 8.37501 10.478 7.45834 10.478ZM14.9583 7.19678C14.9583 8.15928 14.6667 8.94678 14.0833 9.55928C13.5 10.1718 12.75 10.478 11.8333 10.478C11.6806 10.478 11.5104 10.4671 11.3229 10.4452C11.1354 10.4233 10.9653 10.3832 10.8125 10.3249C11.1458 9.96032 11.3993 9.51188 11.5729 8.97959C11.7465 8.4473 11.8333 7.85303 11.8333 7.19678C11.8333 6.54053 11.7465 5.96084 11.5729 5.45772C11.3993 4.95459 11.1458 4.49157 10.8125 4.06865C10.9653 4.0249 11.1354 3.98844 11.3229 3.95928C11.5104 3.93011 11.6806 3.91553 11.8333 3.91553C12.75 3.91553 13.5 4.22178 14.0833 4.83428C14.6667 5.44678 14.9583 6.23428 14.9583 7.19678ZM2.04167 16.1874H12.875V15.4437C12.875 15.2103 12.809 14.9843 12.6771 14.7655C12.5451 14.5468 12.382 14.3937 12.1875 14.3062C11.1875 13.8395 10.3472 13.5259 9.66667 13.3655C8.98612 13.2051 8.25001 13.1249 7.45834 13.1249C6.66667 13.1249 5.92709 13.2051 5.23959 13.3655C4.55209 13.5259 3.70834 13.8395 2.70834 14.3062C2.51389 14.3937 2.35417 14.5468 2.22917 14.7655C2.10417 14.9843 2.04167 15.2103 2.04167 15.4437V16.1874ZM7.45834 9.16553C8.00001 9.16553 8.44792 8.97959 8.80209 8.60771C9.15626 8.23584 9.33334 7.76553 9.33334 7.19678C9.33334 6.62803 9.15626 6.15772 8.80209 5.78584C8.44792 5.41397 8.00001 5.22803 7.45834 5.22803C6.91667 5.22803 6.46876 5.41397 6.11459 5.78584C5.76042 6.15772 5.58334 6.62803 5.58334 7.19678C5.58334 7.76553 5.76042 8.23584 6.11459 8.60771C6.46876 8.97959 6.91667 9.16553 7.45834 9.16553Z"
        fill="#E66137" />
</svg>