<svg width="29" height="32" viewBox="0 0 29 32" fill="none" xmlns="http://www.w3.org/2000/svg">
    <path
        d="M15.0196 5.46655C14.8233 5.37287 14.6081 5.33832 14.3958 5.36643C14.1835 5.39454 13.9818 5.4843 13.8112 5.62655L8.03541 10.6665H3.62499C3.30452 10.6665 2.99718 10.807 2.77057 11.0571C2.54396 11.3071 2.41666 11.6463 2.41666 11.9999V19.9999C2.41666 20.3535 2.54396 20.6926 2.77057 20.9427C2.99718 21.1927 3.30452 21.3332 3.62499 21.3332H8.03541L13.7508 26.3732C13.9634 26.5614 14.2274 26.6648 14.5 26.6665C14.6805 26.6698 14.8589 26.624 15.0196 26.5332C15.2252 26.4251 15.399 26.2552 15.5208 26.0428C15.6427 25.8305 15.7077 25.5845 15.7083 25.3332V6.66655C15.7077 6.41523 15.6427 6.16923 15.5208 5.95692C15.399 5.7446 15.2252 5.57461 15.0196 5.46655ZM13.2917 22.5599L9.20749 18.9599C8.9949 18.7717 8.73088 18.6683 8.45832 18.6665H4.83332V13.3332H8.45832C8.73088 13.3315 8.9949 13.2281 9.20749 13.0399L13.2917 9.43988V22.5599ZM18.2942 5.45321C18.1355 5.4287 17.974 5.43891 17.8189 5.48327C17.6638 5.52763 17.5181 5.60527 17.3902 5.71174C17.2623 5.81822 17.1546 5.95146 17.0734 6.10384C16.9921 6.25623 16.9389 6.42478 16.9167 6.59988C16.8944 6.77498 16.9037 6.95319 16.9439 7.12433C16.9841 7.29548 17.0545 7.45622 17.151 7.59736C17.3458 7.88242 17.6354 8.07037 17.9558 8.11988C19.6671 8.41087 21.2275 9.36805 22.3547 10.8183C23.4819 12.2685 24.1016 14.116 24.1016 16.0265C24.1016 17.9371 23.4819 19.7846 22.3547 21.2348C21.2275 22.685 19.6671 23.6422 17.9558 23.9332C17.6354 23.958 17.3369 24.1222 17.1262 24.3897C16.9154 24.6573 16.8096 25.0063 16.8321 25.3599C16.8545 25.7135 17.0033 26.0428 17.2458 26.2754C17.4883 26.5079 17.8045 26.6246 18.125 26.5999H18.2942C20.5813 26.2181 22.6686 24.9439 24.177 23.0088C25.6854 21.0736 26.5149 18.6057 26.5149 16.0532C26.5149 13.5007 25.6854 11.0328 24.177 9.09767C22.6686 7.1625 20.5813 5.88834 18.2942 5.50655V5.45321ZM17.7383 18.4932C17.4179 18.5498 17.1309 18.7445 16.9405 19.0346C16.7502 19.3246 16.6721 19.6863 16.7233 20.0399C16.7746 20.3935 16.9511 20.7102 17.2139 20.9202C17.4768 21.1302 17.8045 21.2165 18.125 21.1599C18.2561 21.1583 18.3863 21.1358 18.5117 21.0932C19.453 20.7249 20.2678 20.0439 20.844 19.1437C21.4203 18.2436 21.7297 17.1686 21.7297 16.0665C21.7297 14.9645 21.4203 13.8895 20.844 12.9894C20.2678 12.0892 19.453 11.4082 18.5117 11.0399C18.2072 10.9267 17.8745 10.9516 17.5867 11.1092C17.2989 11.2667 17.0796 11.5439 16.9771 11.8799C16.8745 12.2158 16.8971 12.583 17.0399 12.9005C17.1826 13.2181 17.4339 13.4601 17.7383 13.5732C18.1968 13.7651 18.5916 14.1064 18.8702 14.5518C19.1487 14.9971 19.2979 15.5254 19.2979 16.0665C19.2979 16.6077 19.1487 17.136 18.8702 17.5813C18.5916 18.0267 18.1968 18.368 17.7383 18.5599V18.4932Z"
        fill="#E66137" />
</svg>