<svg width="33" height="33" viewBox="0 0 33 33" fill="none" xmlns="http://www.w3.org/2000/svg">
    <path
        d="M12.375 3.4375V1.375H20.625V3.4375H12.375ZM15.4688 18.8031H17.5312V10.8969H15.4688V18.8031ZM16.5 30.2156C14.8042 30.2156 13.2057 29.8891 11.7047 29.2359C10.2036 28.5828 8.89167 27.6948 7.76875 26.5719C6.64583 25.449 5.75781 24.137 5.10469 22.6359C4.45156 21.1349 4.125 19.5365 4.125 17.8406C4.125 16.1448 4.45156 14.5464 5.10469 13.0453C5.75781 11.5443 6.64583 10.2323 7.76875 9.10938C8.89167 7.98646 10.2036 7.09844 11.7047 6.44531C13.2057 5.79219 14.8042 5.46563 16.5 5.46563C18.0354 5.46563 19.4734 5.71771 20.8141 6.22188C22.1547 6.72604 23.3521 7.43646 24.4062 8.35313L26.1594 6.6L27.6375 8.07812L25.8844 9.83125C26.7094 10.7479 27.4141 11.8594 27.9984 13.1656C28.5828 14.4719 28.875 16.0302 28.875 17.8406C28.875 19.5365 28.5484 21.1349 27.8953 22.6359C27.2422 24.137 26.3542 25.449 25.2313 26.5719C24.1083 27.6948 22.7964 28.5828 21.2953 29.2359C19.7943 29.8891 18.1958 30.2156 16.5 30.2156Z"
        fill="white" />
</svg>