<svg width="21" height="21" viewBox="0 0 21 21" fill="none" xmlns="http://www.w3.org/2000/svg">
    <path
        d="M11.5349 5.24995H9.43764V9.4499H5.24313V11.5499H9.43764V15.7498H11.5349V11.5499H15.7294V9.4499H11.5349V5.24995ZM10.4863 0C4.69784 0 0 4.70395 0 10.4999C0 16.2958 4.69784 20.9998 10.4863 20.9998C16.2747 20.9998 20.9725 16.2958 20.9725 10.4999C20.9725 4.70395 16.2747 0 10.4863 0ZM10.4863 18.8998C5.86182 18.8998 2.09725 15.1303 2.09725 10.4999C2.09725 5.86944 5.86182 2.09998 10.4863 2.09998C15.1107 2.09998 18.8753 5.86944 18.8753 10.4999C18.8753 15.1303 15.1107 18.8998 10.4863 18.8998Z"
        fill="#E66137" />
</svg>