<svg width="25" height="26" viewBox="0 0 25 26" fill="none" xmlns="http://www.w3.org/2000/svg">
    <path
        d="M12.5 10.4001C12.0075 10.4001 11.5199 10.501 11.0649 10.697C10.61 10.893 10.1966 11.1802 9.84835 11.5424C9.50013 11.9045 9.22391 12.3345 9.03545 12.8076C8.847 13.2808 8.75 13.7879 8.75 14.3001C8.75 14.8123 8.847 15.3194 9.03545 15.7926C9.22391 16.2657 9.50013 16.6957 9.84835 17.0578C10.1966 17.42 10.61 17.7072 11.0649 17.9032C11.5199 18.0992 12.0075 18.2001 12.5 18.2001C13.4946 18.2001 14.4484 17.7892 15.1517 17.0578C15.8549 16.3264 16.25 15.3344 16.25 14.3001C16.25 13.2658 15.8549 12.2738 15.1517 11.5424C14.4484 10.811 13.4946 10.4001 12.5 10.4001ZM22.5 6.5001H19.5C19.2841 6.48986 19.0758 6.41428 18.9006 6.28265C18.7254 6.15102 18.5909 5.96906 18.5138 5.7591L17.7375 3.3398C17.6598 3.13007 17.525 2.94843 17.3496 2.81707C17.1743 2.68571 16.9659 2.61031 16.75 2.6001H8.25C7.8375 2.6001 7.3925 2.9329 7.26375 3.3385L6.48625 5.7591C6.40894 5.96896 6.27447 6.15084 6.0993 6.28244C5.92413 6.41405 5.71587 6.48969 5.5 6.5001H2.5C1.125 6.5001 0 7.6701 0 9.1001V20.8001C0 22.2301 1.125 23.4001 2.5 23.4001H22.5C23.875 23.4001 25 22.2301 25 20.8001V9.1001C25 7.6701 23.875 6.5001 22.5 6.5001ZM12.5 20.8001C10.8424 20.8001 9.25268 20.1153 8.08058 18.8963C6.90848 17.6773 6.25 16.024 6.25 14.3001C6.25 12.5762 6.90848 10.9229 8.08058 9.7039C9.25268 8.48492 10.8424 7.8001 12.5 7.8001C14.1576 7.8001 15.7473 8.48492 16.9194 9.7039C18.0915 10.9229 18.75 12.5762 18.75 14.3001C18.75 16.024 18.0915 17.6773 16.9194 18.8963C15.7473 20.1153 14.1576 20.8001 12.5 20.8001ZM21.875 10.6601C21.6429 10.6601 21.4204 10.5642 21.2563 10.3936C21.0922 10.2229 21 9.99144 21 9.7501C21 9.50875 21.0922 9.27729 21.2563 9.10663C21.4204 8.93597 21.6429 8.8401 21.875 8.8401C22.1071 8.8401 22.3296 8.93597 22.4937 9.10663C22.6578 9.27729 22.75 9.50875 22.75 9.7501C22.75 9.99144 22.6578 10.2229 22.4937 10.3936C22.3296 10.5642 22.1071 10.6601 21.875 10.6601Z"
        fill="#E66137" />
</svg>