<svg width="24" height="24" viewBox="0 0 24 24" fill="none" xmlns="http://www.w3.org/2000/svg">
    <path
        d="M7 13.7C6.53333 13.7 6.13333 13.5333 5.8 13.2C5.46667 12.8667 5.3 12.4667 5.3 12C5.3 11.5333 5.46667 11.1333 5.8 10.8C6.13333 10.4667 6.53333 10.3 7 10.3C7.46667 10.3 7.86667 10.4667 8.2 10.8C8.53333 11.1333 8.7 11.5333 8.7 12C8.7 12.4667 8.53333 12.8667 8.2 13.2C7.86667 13.5333 7.46667 13.7 7 13.7ZM7 18C5.33333 18 3.91667 17.4167 2.75 16.25C1.58333 15.0833 1 13.6667 1 12C1 10.3333 1.58333 8.91667 2.75 7.75C3.91667 6.58333 5.33333 6 7 6C8.2 6 9.25 6.28333 10.15 6.85C11.05 7.41667 11.7583 8.275 12.275 9.425H20.875C20.975 9.425 21.0667 9.44167 21.15 9.475C21.2333 9.50833 21.3167 9.56667 21.4 9.65L23.45 11.7C23.5333 11.7833 23.5917 11.8708 23.625 11.9625C23.6583 12.0542 23.675 12.15 23.675 12.25C23.675 12.35 23.6542 12.4417 23.6125 12.525C23.5708 12.6083 23.5083 12.6917 23.425 12.775L20.3 15.65C20.2333 15.7167 20.1583 15.7667 20.075 15.8C19.9917 15.8333 19.9083 15.85 19.825 15.85C19.7417 15.85 19.6625 15.8417 19.5875 15.825C19.5125 15.8083 19.4333 15.775 19.35 15.725L17.625 14.475L15.875 15.75C15.8083 15.8 15.7375 15.8333 15.6625 15.85C15.5875 15.8667 15.5083 15.875 15.425 15.875C15.3417 15.875 15.2625 15.8625 15.1875 15.8375C15.1125 15.8125 15.0417 15.775 14.975 15.725L13.55 14.575H12.275C11.8583 15.575 11.2042 16.3958 10.3125 17.0375C9.42083 17.6792 8.31667 18 7 18ZM7 16.5C7.96667 16.5 8.85833 16.1792 9.675 15.5375C10.4917 14.8958 11.0167 14.075 11.25 13.075H14.1L15.45 14.2C15.4333 14.2 15.4333 14.2 15.45 14.2L17.65 12.625L19.7 14.175L21.825 12.2L20.55 10.925H11.25C11.05 9.99167 10.55 9.1875 9.75 8.5125C8.95 7.8375 8.03333 7.5 7 7.5C5.75 7.5 4.6875 7.9375 3.8125 8.8125C2.9375 9.6875 2.5 10.75 2.5 12C2.5 13.25 2.9375 14.3125 3.8125 15.1875C4.6875 16.0625 5.75 16.5 7 16.5Z"
        fill="#E66137" />
</svg>