<svg width="23" height="22" viewBox="0 0 23 22" fill="none" xmlns="http://www.w3.org/2000/svg">
    <path
        d="M10.4545 21.9882C9.02576 21.9882 7.67538 21.7133 6.40341 21.1636C5.13144 20.6139 4.02064 19.8635 3.07102 18.9124C2.1214 17.9614 1.37216 16.8489 0.823295 15.5749C0.274432 14.301 0 12.9486 0 11.5176C0 10.0692 0.274432 8.70801 0.823295 7.43409C1.37216 6.16017 2.1214 5.05204 3.07102 4.10969C4.02064 3.16734 5.13144 2.42131 6.40341 1.87161C7.67538 1.32191 9.02576 1.04706 10.4545 1.04706C11.2561 1.04706 12.0271 1.13431 12.7676 1.30882C13.5081 1.48333 14.2182 1.72764 14.8977 2.04176V3.79557C14.2356 3.41165 13.5343 3.11935 12.7938 2.91867C12.0532 2.71798 11.2735 2.61764 10.4545 2.61764C7.99773 2.61764 5.90246 3.48146 4.16875 5.2091C2.43504 6.93674 1.56818 9.03958 1.56818 11.5176C1.56818 13.9782 2.43504 16.0767 4.16875 17.813C5.90246 19.5494 7.99773 20.4176 10.4545 20.4176C12.9288 20.4176 15.0284 19.5494 16.7534 17.813C18.4784 16.0767 19.3409 13.9782 19.3409 11.5176C19.3409 10.9068 19.2843 10.3179 19.171 9.7507C19.0578 9.18355 18.8879 8.6382 18.6614 8.11468H20.3341C20.5258 8.65566 20.6695 9.20536 20.7653 9.76379C20.8612 10.3222 20.9091 10.9068 20.9091 11.5176C20.9091 12.9486 20.6347 14.301 20.0858 15.5749C19.5369 16.8489 18.792 17.9614 17.8511 18.9124C16.9102 19.8635 15.8038 20.6139 14.5318 21.1636C13.2598 21.7133 11.9008 21.9882 10.4545 21.9882ZM14.2705 10.1303C14.6712 10.1303 15.0066 9.99501 15.2767 9.72453C15.5468 9.45404 15.6818 9.1181 15.6818 8.71673C15.6818 8.31536 15.5468 7.97943 15.2767 7.70894C15.0066 7.43845 14.6712 7.30321 14.2705 7.30321C13.8697 7.30321 13.5343 7.43845 13.2642 7.70894C12.9941 7.97943 12.8591 8.31536 12.8591 8.71673C12.8591 9.1181 12.9941 9.45404 13.2642 9.72453C13.5343 9.99501 13.8697 10.1303 14.2705 10.1303ZM6.63864 10.1303C7.03939 10.1303 7.37481 9.99501 7.64489 9.72453C7.91496 9.45404 8.05 9.1181 8.05 8.71673C8.05 8.31536 7.91496 7.97943 7.64489 7.70894C7.37481 7.43845 7.03939 7.30321 6.63864 7.30321C6.23788 7.30321 5.90246 7.43845 5.63239 7.70894C5.36231 7.97943 5.22727 8.31536 5.22727 8.71673C5.22727 9.1181 5.36231 9.45404 5.63239 9.72453C5.90246 9.99501 6.23788 10.1303 6.63864 10.1303ZM10.4545 17.2502C11.6045 17.2502 12.6631 16.9405 13.6301 16.321C14.5972 15.7015 15.2985 14.8595 15.7341 13.795H5.175C5.62803 14.8595 6.33371 15.7015 7.29205 16.321C8.25038 16.9405 9.30455 17.2502 10.4545 17.2502ZM19.0795 6.28233V3.92646H16.7273V2.35587H19.0795V0H20.6477V2.35587H23V3.92646H20.6477V6.28233H19.0795Z"
        fill="#E66137" />
</svg>