<svg width="28" height="28" viewBox="0 0 28 28" fill="none" xmlns="http://www.w3.org/2000/svg">
    <path
        d="M21.2917 16.3332V12.5415H17.5V10.7915H21.2917V6.99987H23.0417V10.7915H26.8334V12.5415H23.0417V16.3332H21.2917ZM10.5 13.9707C9.21669 13.9707 8.16669 13.5624 7.35002 12.7457C6.53335 11.929 6.12502 10.879 6.12502 9.5957C6.12502 8.31237 6.53335 7.26237 7.35002 6.4457C8.16669 5.62904 9.21669 5.2207 10.5 5.2207C11.7834 5.2207 12.8334 5.62904 13.65 6.4457C14.4667 7.26237 14.875 8.31237 14.875 9.5957C14.875 10.879 14.4667 11.929 13.65 12.7457C12.8334 13.5624 11.7834 13.9707 10.5 13.9707ZM1.16669 23.3332V20.5915C1.16669 19.911 1.33683 19.2936 1.6771 18.7395C2.01738 18.1853 2.50835 17.7721 3.15002 17.4999C4.60835 16.8582 5.90627 16.4061 7.04377 16.1436C8.18127 15.8811 9.33335 15.7499 10.5 15.7499C11.6667 15.7499 12.8139 15.8811 13.9417 16.1436C15.0695 16.4061 16.3625 16.8582 17.8209 17.4999C18.4625 17.7915 18.9584 18.2096 19.3084 18.754C19.6584 19.2985 19.8334 19.911 19.8334 20.5915V23.3332H1.16669ZM2.91669 21.5832H18.0834V20.5915C18.0834 20.2804 17.9959 19.9839 17.8209 19.702C17.6459 19.42 17.4125 19.211 17.1209 19.0749C15.7403 18.4332 14.5736 18.0103 13.6209 17.8061C12.6681 17.602 11.6278 17.4999 10.5 17.4999C9.37224 17.4999 8.3271 17.602 7.3646 17.8061C6.4021 18.0103 5.23058 18.4332 3.85002 19.0749C3.55835 19.211 3.32988 19.42 3.1646 19.702C2.99933 19.9839 2.91669 20.2804 2.91669 20.5915V21.5832ZM10.5 12.2207C11.2584 12.2207 11.8854 11.9728 12.3813 11.477C12.8771 10.9811 13.125 10.354 13.125 9.5957C13.125 8.83737 12.8771 8.21029 12.3813 7.71445C11.8854 7.21862 11.2584 6.9707 10.5 6.9707C9.74169 6.9707 9.1146 7.21862 8.61877 7.71445C8.12294 8.21029 7.87502 8.83737 7.87502 9.5957C7.87502 10.354 8.12294 10.9811 8.61877 11.477C9.1146 11.9728 9.74169 12.2207 10.5 12.2207Z"
        fill="#E66137" />
</svg>