<svg width="20" height="20" viewBox="0 0 20 20" fill="none" xmlns="http://www.w3.org/2000/svg">
    <path
        d="M3.75 17.5C3.41667 17.5 3.125 17.375 2.875 17.125C2.625 16.875 2.5 16.5833 2.5 16.25V3.75C2.5 3.41667 2.625 3.125 2.875 2.875C3.125 2.625 3.41667 2.5 3.75 2.5H13.7083C13.875 2.5 14.0382 2.53472 14.1979 2.60417C14.3576 2.67361 14.4931 2.76389 14.6042 2.875L17.125 5.39583C17.2361 5.50694 17.3264 5.64236 17.3958 5.80208C17.4653 5.96181 17.5 6.125 17.5 6.29167V16.25C17.5 16.5833 17.375 16.875 17.125 17.125C16.875 17.375 16.5833 17.5 16.25 17.5H3.75ZM16.25 6.33333L13.6667 3.75H3.75V16.25H16.25V6.33333ZM10 14.8958C10.5972 14.8958 11.1076 14.684 11.5312 14.2604C11.9549 13.8368 12.1667 13.3264 12.1667 12.7292C12.1667 12.1319 11.9549 11.6215 11.5312 11.1979C11.1076 10.7743 10.5972 10.5625 10 10.5625C9.40278 10.5625 8.89236 10.7743 8.46875 11.1979C8.04514 11.6215 7.83333 12.1319 7.83333 12.7292C7.83333 13.3264 8.04514 13.8368 8.46875 14.2604C8.89236 14.684 9.40278 14.8958 10 14.8958ZM5.47917 7.83333H11.6875C11.8681 7.83333 12.0174 7.77431 12.1354 7.65625C12.2535 7.53819 12.3125 7.38889 12.3125 7.20833V5.47917C12.3125 5.29861 12.2535 5.14931 12.1354 5.03125C12.0174 4.91319 11.8681 4.85417 11.6875 4.85417H5.47917C5.29861 4.85417 5.14931 4.91319 5.03125 5.03125C4.91319 5.14931 4.85417 5.29861 4.85417 5.47917V7.20833C4.85417 7.38889 4.91319 7.53819 5.03125 7.65625C5.14931 7.77431 5.29861 7.83333 5.47917 7.83333ZM3.75 6.33333V16.25V3.75V6.33333Z"
        fill="#E66137" />
</svg>