<svg width="34" height="32" viewBox="0 0 34 32" fill="none" xmlns="http://www.w3.org/2000/svg">
    <path
        d="M12.9536 27.2331V23.2142C12.9536 22.1958 13.8488 21.3685 14.9578 21.3621H19.0295C20.1434 21.3621 21.0464 22.1913 21.0464 23.2142V27.2215C21.0463 28.1048 21.8223 28.8226 22.7841 28.829H25.5621C26.8594 28.8321 28.1049 28.361 29.0235 27.5196C29.942 26.6782 30.4583 25.5357 30.4583 24.3442V12.9283C30.4583 11.9658 29.9937 11.0529 29.1898 10.4354L19.7525 3.50431C18.1029 2.29199 15.7468 2.33115 14.1459 3.59751L4.91159 10.4354C4.06971 11.0347 3.56652 11.9503 3.54166 12.9283V24.3325C3.54166 26.8159 5.73378 28.829 8.4379 28.829H11.1524C11.6155 28.8321 12.0608 28.6653 12.3894 28.3657C12.718 28.0661 12.9029 27.6584 12.9029 27.2331H12.9536Z"
        fill="white" fill-opacity="0.6" />
</svg>