<svg width="69" height="13" viewBox="0 0 69 13" fill="none" xmlns="http://www.w3.org/2000/svg">
    <path
        d="M69 4.64819L64.3753 4.25014L62.5678 0L60.7604 4.25656L56.1356 4.64819L59.6476 7.68492L58.5927 12.1983L62.5678 9.80357L66.5429 12.1983L65.4945 7.68492L69 4.64819ZM62.5678 8.603L60.1493 10.0604L60.7925 7.31255L58.657 5.46355L61.4743 5.21958L62.5678 2.63226L63.6677 5.226L66.485 5.46997L64.3495 7.31897L64.9928 10.0668L62.5678 8.603Z"
        fill="#FFBE00" />
    <path
        d="M6.43221 9.80357L10.4073 12.1983L9.35244 7.68492L12.8644 4.64819L8.23966 4.25656L6.43221 0L4.62476 4.25656L0 4.64819L3.51199 7.68492L2.4571 12.1983L6.43221 9.80357Z"
        fill="#FFBE00" />
    <path
        d="M20.4662 9.80357L24.4413 12.1983L23.3864 7.68492L26.8984 4.64819L22.2737 4.25656L20.4662 0L18.6588 4.25656L14.034 4.64819L17.546 7.68492L16.4911 12.1983L20.4662 9.80357Z"
        fill="#FFBE00" />
    <path
        d="M34.5002 9.80357L38.4753 12.1983L37.4204 7.68492L40.9324 4.64819L36.3076 4.25656L34.5002 0L32.6927 4.25656L28.068 4.64819L31.58 7.68492L30.5251 12.1983L34.5002 9.80357Z"
        fill="#FFBE00" />
    <path
        d="M55.0276 4.64819L50.3807 4.25014L48.5646 0L46.7485 4.25656L42.1016 4.64819L45.6304 7.68492L44.5705 12.1983L48.5646 9.80357L52.5587 12.1983L51.5053 7.68492L55.0276 4.64819ZM48.5646 8.603V2.63226L49.6698 5.226L52.5006 5.46997L50.3548 7.31897L51.0011 10.0668L48.5646 8.603Z"
        fill="#FFBE00" />
</svg>