<svg width="31" height="31" viewBox="0 0 31 31" fill="none" xmlns="http://www.w3.org/2000/svg">
    <path
        d="M15.4798 0C6.91949 0 0 6.92848 0 15.5C0 24.0714 6.91949 30.9999 15.4798 30.9999C24.0402 30.9999 30.9597 24.0714 30.9597 15.5C30.9597 6.92848 24.0402 0 15.4798 0ZM22.1362 22.1649C21.5325 22.7694 20.5572 22.7694 19.9535 22.1649L15.4798 17.6855L11.0062 22.1649C10.4025 22.7694 9.42722 22.7694 8.82351 22.1649C8.2198 21.5604 8.2198 20.584 8.82351 19.9795L13.2972 15.5L8.82351 11.0205C8.2198 10.416 8.2198 9.43948 8.82351 8.83498C9.42722 8.23048 10.4025 8.23048 11.0062 8.83498L15.4798 13.3145L19.9535 8.83498C20.5572 8.23048 21.5325 8.23048 22.1362 8.83498C22.7399 9.43948 22.7399 10.416 22.1362 11.0205L17.6625 15.5L22.1362 19.9795C22.7244 20.5685 22.7244 21.5604 22.1362 22.1649Z"
        fill="white" />
</svg>