<svg width="23" height="23" viewBox="0 0 23 23" fill="none" xmlns="http://www.w3.org/2000/svg">
    <g clip-path="url(#clip0_1201_1609)">
        <path
            d="M11.5 1.9165C6.20996 1.9165 1.91663 6.20984 1.91663 11.4998C1.91663 16.7898 6.20996 21.0832 11.5 21.0832C16.79 21.0832 21.0833 16.7898 21.0833 11.4998C21.0833 6.20984 16.79 1.9165 11.5 1.9165ZM11.5 4.7915C13.0908 4.7915 14.375 6.07567 14.375 7.6665C14.375 9.25734 13.0908 10.5415 11.5 10.5415C9.90913 10.5415 8.62496 9.25734 8.62496 7.6665C8.62496 6.07567 9.90913 4.7915 11.5 4.7915ZM11.5 18.3998C9.10413 18.3998 6.98621 17.1732 5.74996 15.314C5.77871 13.4069 9.58329 12.3623 11.5 12.3623C13.407 12.3623 17.2212 13.4069 17.25 15.314C16.0137 17.1732 13.8958 18.3998 11.5 18.3998Z"
            fill="#E66137" />
    </g>
    <defs>
        <clipPath id="clip0_1201_1609">
            <rect width="23" height="23" fill="white" />
        </clipPath>
    </defs>
</svg>