<svg width="21" height="20" viewBox="0 0 21 20" fill="none" xmlns="http://www.w3.org/2000/svg">
    <path
        d="M16.889 13.8295V8.70744C16.889 5.56252 15.1438 2.9298 12.1004 2.2332V1.53661C12.1004 0.686352 11.3767 0 10.4935 0C9.61028 0 8.90795 0.686352 8.90795 1.53661V2.2332C5.85388 2.9298 4.11934 5.55228 4.11934 8.70744V13.8295L2.73597 15.151C2.06556 15.7963 2.53378 16.9027 3.48086 16.9027H17.4955C18.4426 16.9027 18.9215 15.7963 18.2511 15.151L16.889 13.8295ZM10.4935 19.9759C11.6641 19.9759 12.6218 19.0539 12.6218 17.9271H8.36524C8.36524 19.0539 9.31232 19.9759 10.4935 19.9759ZM4.93873 2.28442C5.38566 1.89515 5.3963 1.22929 4.97065 0.819524C4.56628 0.43025 3.90651 0.420006 3.4915 0.799036C1.67183 2.39711 0.416152 4.56885 0.011781 7.00693C-0.0839912 7.63182 0.416152 8.19524 1.07592 8.19524C1.5867 8.19524 2.03364 7.8367 2.11877 7.34499C2.43801 5.35764 3.45958 3.58542 4.93873 2.28442ZM17.5274 0.799036C17.1018 0.420006 16.442 0.43025 16.0377 0.819524C15.612 1.22929 15.6333 1.88491 16.0696 2.27418C17.5381 3.57517 18.5703 5.3474 18.8895 7.33474C18.964 7.82646 19.411 8.185 19.9324 8.185C20.5815 8.185 21.0923 7.62157 20.9859 6.99669C20.5815 4.56885 19.3365 2.40735 17.5274 0.799036Z"
        fill="#E66137" />
</svg>