<svg width="13" height="13" viewBox="0 0 13 13" fill="none" xmlns="http://www.w3.org/2000/svg">
    <path
        d="M3.88568 8.45007H0.647613C0.259045 8.45007 0 8.71008 0 9.10008C0 9.49008 0.259045 9.75009 0.647613 9.75009H3.23806V12.3501C3.23806 12.7401 3.49711 13.0001 3.88568 13.0001C4.27424 13.0001 4.53329 12.7401 4.53329 12.3501V9.10008C4.53329 8.71008 4.27424 8.45007 3.88568 8.45007ZM3.88568 0C3.49711 0 3.23806 0.260002 3.23806 0.650006V3.25003H0.647613C0.259045 3.25003 0 3.51003 0 3.90003C0 4.29004 0.259045 4.55004 0.647613 4.55004H3.88568C4.27424 4.55004 4.53329 4.29004 4.53329 3.90003V0.650006C4.53329 0.260002 4.27424 0 3.88568 0ZM9.06658 4.55004H12.3046C12.6932 4.55004 12.9523 4.29004 12.9523 3.90003C12.9523 3.51003 12.6932 3.25003 12.3046 3.25003H9.71419V0.650006C9.71419 0.260002 9.45514 0 9.06658 0C8.67801 0 8.41896 0.260002 8.41896 0.650006V3.90003C8.41896 4.29004 8.67801 4.55004 9.06658 4.55004ZM12.3046 8.45007H9.06658C8.67801 8.45007 8.41896 8.71008 8.41896 9.10008V12.3501C8.41896 12.7401 8.67801 13.0001 9.06658 13.0001C9.45514 13.0001 9.71419 12.7401 9.71419 12.3501V9.75009H12.3046C12.6932 9.75009 12.9523 9.49008 12.9523 9.10008C12.9523 8.71008 12.6932 8.45007 12.3046 8.45007Z"
        fill="white" />
</svg>