<svg width="20" height="19" viewBox="0 0 20 19" fill="none" xmlns="http://www.w3.org/2000/svg">
    <path
        d="M7.97917 12.0729L13.5417 8.70833L7.97917 5.34375V12.0729ZM6.875 16.625V15.0417H2.91667C2.58334 15.0417 2.29167 14.9229 2.04167 14.6854C1.79167 14.4479 1.66667 14.1708 1.66667 13.8542V3.5625C1.66667 3.24583 1.79167 2.96875 2.04167 2.73125C2.29167 2.49375 2.58334 2.375 2.91667 2.375H17.0833C17.4167 2.375 17.7083 2.49375 17.9583 2.73125C18.2083 2.96875 18.3333 3.24583 18.3333 3.5625V13.8542C18.3333 14.1708 18.2083 14.4479 17.9583 14.6854C17.7083 14.9229 17.4167 15.0417 17.0833 15.0417H13.125V16.625H6.875ZM2.91667 13.8542H17.0833V3.5625H2.91667V13.8542Z"
        fill="#E66137" />
</svg>