<svg width="18" height="20" viewBox="0 0 18 20" fill="none" xmlns="http://www.w3.org/2000/svg">
    <path
        d="M15.6376 6.66669H14.5207V4.76192C14.5207 2.13334 12.0186 0 8.93579 0C5.85294 0 3.35092 2.13334 3.35092 4.76192V6.66669H2.23395C1.00528 6.66669 0 7.52384 0 8.57146V18.0953C0 19.1429 1.00528 20.0001 2.23395 20.0001H15.6376C16.8663 20.0001 17.8716 19.1429 17.8716 18.0953V8.57146C17.8716 7.52384 16.8663 6.66669 15.6376 6.66669ZM8.93579 15.2382C7.70712 15.2382 6.70184 14.381 6.70184 13.3334C6.70184 12.2858 7.70712 11.4286 8.93579 11.4286C10.1645 11.4286 11.1697 12.2858 11.1697 13.3334C11.1697 14.381 10.1645 15.2382 8.93579 15.2382ZM12.3984 6.66669H5.47317V4.76192C5.47317 3.13334 7.02576 1.80953 8.93579 1.80953C10.8458 1.80953 12.3984 3.13334 12.3984 4.76192V6.66669Z"
        fill="#E66137" />
</svg>