<svg width="14" height="11" viewBox="0 0 14 11" fill="none" xmlns="http://www.w3.org/2000/svg">
    <path
        d="M9.79996 2.84344V9.66769C9.79967 9.96924 9.70125 10.2583 9.52628 10.4716C9.35131 10.6848 9.11407 10.8047 8.86663 10.8051H2.33332C1.7147 10.8042 1.12163 10.5044 0.684196 9.97129C0.246766 9.43823 0.000707721 8.71549 0 7.96163V1.13738C0.000282996 0.835831 0.0987065 0.546735 0.273678 0.333511C0.44865 0.120286 0.685882 0.000344865 0.933329 0H7.46663C8.08525 0.000862444 8.67833 0.300715 9.11576 0.833777C9.55319 1.36684 9.79925 2.08958 9.79996 2.84344ZM13.7675 1.49857C13.6968 1.44859 13.6166 1.4221 13.5349 1.42176C13.4531 1.42142 13.3727 1.44724 13.3018 1.49662L10.9684 3.12147C10.897 3.17121 10.8376 3.24307 10.7963 3.32979C10.755 3.41651 10.7333 3.51499 10.7333 3.61525V7.18982C10.7333 7.29008 10.755 7.38856 10.7963 7.47528C10.8376 7.56199 10.897 7.63386 10.9684 7.6836L13.3018 9.30845C13.3727 9.35785 13.4531 9.38368 13.5348 9.38334C13.6166 9.383 13.6968 9.35651 13.7675 9.30651C13.8382 9.25651 13.8969 9.18476 13.9377 9.09844C13.9785 9.01213 13.9999 8.91427 13.9999 8.81466V1.99041C13.9999 1.8908 13.9785 1.79294 13.9377 1.70662C13.8969 1.6203 13.8382 1.54855 13.7675 1.49857Z"
        fill="#E66137" />
</svg>