<svg width="29" height="29" viewBox="0 0 29 29" fill="none" xmlns="http://www.w3.org/2000/svg">
    <path
        d="M14.5 25.3748C11.8417 25.3748 9.56601 24.4535 7.67296 22.6108C5.7799 20.7681 4.83337 18.5175 4.83337 15.8592C4.83337 14.53 5.08511 13.2965 5.58858 12.1587C6.09205 11.0208 6.78685 10.0089 7.67296 9.12275L14.5 2.4165L21.3271 9.12275C22.2132 10.0089 22.908 11.0208 23.4115 12.1587C23.915 13.2965 24.1667 14.53 24.1667 15.8592C24.1667 18.4974 23.2252 20.7429 21.3422 22.5957C19.4592 24.4485 17.1785 25.3748 14.5 25.3748ZM14.5 23.5623V4.954L8.88129 10.4821C8.15629 11.2071 7.60247 12.0127 7.21983 12.8988C6.83719 13.7849 6.64587 14.7717 6.64587 15.8592C6.64587 18.0141 7.41619 19.8366 8.95681 21.3269C10.4974 22.8172 12.3452 23.5623 14.5 23.5623Z"
        fill="#E66137" />
</svg>