<svg width="21" height="22" viewBox="0 0 21 22" fill="none" xmlns="http://www.w3.org/2000/svg">
    <path fill-rule="evenodd" clip-rule="evenodd"
        d="M9.14102 0C14.1869 0 18.282 4.36664 18.282 9.74697C18.282 15.1273 14.1869 19.4939 9.14102 19.4939C4.09518 19.4939 0 15.1273 0 9.74697C0 4.36664 4.09518 0 9.14102 0ZM9.14102 17.328C13.0686 17.328 16.2507 13.9349 16.2507 9.74697C16.2507 5.55794 13.0686 2.16599 9.14102 2.16599C5.21242 2.16599 2.03134 5.55794 2.03134 9.74697C2.03134 13.9349 5.21242 17.328 9.14102 17.328ZM19.1951 22L20.6323 20.4676L17.759 17.4048L16.3228 18.9362L19.1951 22Z"
        fill="black" />
</svg>