<svg width="22" height="22" viewBox="0 0 22 22" fill="none" xmlns="http://www.w3.org/2000/svg">
    <g clip-path="url(#clip0_580_1394)">
        <path
            d="M3.57504 11.0001C3.57504 9.43258 4.84921 8.15841 6.41671 8.15841H10.0834V6.41675H6.41671C3.88671 6.41675 1.83337 8.47008 1.83337 11.0001C1.83337 13.5301 3.88671 15.5834 6.41671 15.5834H10.0834V13.8417H6.41671C4.84921 13.8417 3.57504 12.5676 3.57504 11.0001ZM7.33337 11.9167H14.6667V10.0834H7.33337V11.9167ZM15.5834 6.41675H11.9167V8.15841H15.5834C17.1509 8.15841 18.425 9.43258 18.425 11.0001C18.425 12.5676 17.1509 13.8417 15.5834 13.8417H11.9167V15.5834H15.5834C18.1134 15.5834 20.1667 13.5301 20.1667 11.0001C20.1667 8.47008 18.1134 6.41675 15.5834 6.41675Z"
            fill="black" />
    </g>
    <defs>
        <clipPath id="clip0_580_1394">
            <rect width="22" height="22" fill="white" />
        </clipPath>
    </defs>
</svg>