<svg width="26" height="26" viewBox="0 0 26 26" fill="none" xmlns="http://www.w3.org/2000/svg">
    <path
        d="M13 23.8332C10.4723 23.2012 8.39587 21.7342 6.77087 19.4321C5.14587 17.13 4.33337 14.6068 4.33337 11.8623V5.4165L13 2.1665L21.6667 5.4165V11.8623C21.6667 14.6068 20.8542 17.13 19.2292 19.4321C17.6042 21.7342 15.5278 23.2012 13 23.8332ZM13 22.154C14.9139 21.5221 16.4983 20.362 17.7532 18.6738C19.008 16.9856 19.7438 15.0943 19.9605 12.9998H13V3.92692L5.95837 6.554V11.8623C5.95837 12.079 5.96289 12.2641 5.97192 12.4175C5.98094 12.571 6.00351 12.7651 6.03962 12.9998H13V22.154Z"
        fill="#E66137" />
</svg>