<svg width="27" height="27" viewBox="0 0 27 27" fill="none" xmlns="http://www.w3.org/2000/svg">
    <path
        d="M13.3313 13.3311C13.8188 12.7311 14.1797 12.1123 14.4141 11.4748C14.6484 10.8373 14.7656 10.0967 14.7656 9.25295C14.7656 8.4092 14.6484 7.66858 14.4141 7.03108C14.1797 6.39358 13.8188 5.77483 13.3313 5.17483C14.7563 4.85608 16.0078 5.0717 17.0859 5.8217C18.1641 6.5717 18.7031 7.71545 18.7031 9.25295C18.7031 10.7905 18.1641 11.9342 17.0859 12.6842C16.0078 13.4342 14.7563 13.6498 13.3313 13.3311ZM19.4062 22.4998V19.8561C19.4062 18.8998 19.1625 18.0092 18.675 17.1842C18.1875 16.3592 17.3438 15.6655 16.1438 15.103C19.3875 15.5155 21.6047 16.1154 22.7953 16.903C23.9859 17.6904 24.5813 18.6748 24.5813 19.8561V22.4998H19.4062ZM22.5 14.3717V11.5592H19.6875V9.8717H22.5V7.0592H24.1875V9.8717H27V11.5592H24.1875V14.3717H22.5ZM8.85938 13.4717C7.62187 13.4717 6.60938 13.078 5.82188 12.2905C5.03438 11.503 4.64062 10.4905 4.64062 9.25295C4.64062 8.01545 5.03438 7.00295 5.82188 6.21545C6.60938 5.42795 7.62187 5.0342 8.85938 5.0342C10.0969 5.0342 11.1094 5.42795 11.8969 6.21545C12.6844 7.00295 13.0781 8.01545 13.0781 9.25295C13.0781 10.4905 12.6844 11.503 11.8969 12.2905C11.1094 13.078 10.0969 13.4717 8.85938 13.4717ZM0 22.4998V19.8561C0 19.1998 0.173438 18.6045 0.520312 18.0701C0.867188 17.5358 1.33125 17.1373 1.9125 16.8748C3.2625 16.2748 4.46719 15.8436 5.52656 15.5811C6.58594 15.3186 7.69688 15.1873 8.85938 15.1873C10.0219 15.1873 11.1281 15.3186 12.1781 15.5811C13.2281 15.8436 14.4281 16.2748 15.7781 16.8748C16.3594 17.1373 16.8281 17.5358 17.1844 18.0701C17.5406 18.6045 17.7188 19.1998 17.7188 19.8561V22.4998H0ZM8.85938 11.7842C9.59062 11.7842 10.1953 11.5451 10.6734 11.067C11.1516 10.5889 11.3906 9.9842 11.3906 9.25295C11.3906 8.5217 11.1516 7.91701 10.6734 7.43889C10.1953 6.96076 9.59062 6.7217 8.85938 6.7217C8.12813 6.7217 7.52344 6.96076 7.04531 7.43889C6.56719 7.91701 6.32812 8.5217 6.32812 9.25295C6.32812 9.9842 6.56719 10.5889 7.04531 11.067C7.52344 11.5451 8.12813 11.7842 8.85938 11.7842ZM1.6875 20.8123H16.0312V19.8561C16.0312 19.5561 15.9563 19.2748 15.8063 19.0123C15.6562 18.7498 15.4219 18.5436 15.1031 18.3936C13.8094 17.7936 12.7125 17.3904 11.8125 17.1842C10.9125 16.978 9.92813 16.8748 8.85938 16.8748C7.79063 16.8748 6.81094 16.978 5.92031 17.1842C5.02969 17.3904 3.91875 17.7936 2.5875 18.3936C2.30625 18.5248 2.08594 18.7264 1.92656 18.9983C1.76719 19.2701 1.6875 19.5561 1.6875 19.8561V20.8123Z"
        fill="#E66137" />
</svg>