<svg width="24" height="24" viewBox="0 0 24 24" fill="none" xmlns="http://www.w3.org/2000/svg">
    <path
        d="M12 22C10.6333 22 9.34167 21.7375 8.125 21.2125C6.90833 20.6875 5.84583 19.9708 4.9375 19.0625C4.02917 18.1542 3.3125 17.0917 2.7875 15.875C2.2625 14.6583 2 13.3667 2 12C2 10.6167 2.2625 9.31667 2.7875 8.1C3.3125 6.88333 4.02917 5.825 4.9375 4.925C5.84583 4.025 6.90833 3.3125 8.125 2.7875C9.34167 2.2625 10.6333 2 12 2C13.3833 2 14.6833 2.2625 15.9 2.7875C17.1167 3.3125 18.175 4.025 19.075 4.925C19.975 5.825 20.6875 6.88333 21.2125 8.1C21.7375 9.31667 22 10.6167 22 12C22 13.3667 21.7375 14.6583 21.2125 15.875C20.6875 17.0917 19.975 18.1542 19.075 19.0625C18.175 19.9708 17.1167 20.6875 15.9 21.2125C14.6833 21.7375 13.3833 22 12 22ZM12 3.5C9.96667 3.5 8.18333 4.12917 6.65 5.3875C5.11667 6.64583 4.13333 8.23333 3.7 10.15C4.38333 10.15 4.94583 9.9875 5.3875 9.6625C5.82917 9.3375 6.29167 8.7 6.775 7.75C7.00833 7.28333 7.34583 6.91667 7.7875 6.65C8.22917 6.38333 8.71667 6.25 9.25 6.25H14.75C15.2833 6.25 15.7708 6.38333 16.2125 6.65C16.6542 6.91667 16.9917 7.28333 17.225 7.75C17.7083 8.75 18.1917 9.4 18.675 9.7C19.1583 10 19.7 10.15 20.3 10.15C19.8667 8.23333 18.8875 6.64583 17.3625 5.3875C15.8375 4.12917 14.05 3.5 12 3.5ZM12 20.5C14.3667 20.5 16.375 19.6708 18.025 18.0125C19.675 16.3542 20.5 14.35 20.5 12V11.7C19.2333 11.7 18.2542 11.3708 17.5625 10.7125C16.8708 10.0542 16.3083 9.3 15.875 8.45C15.7583 8.21667 15.6042 8.04167 15.4125 7.925C15.2208 7.80833 15.0083 7.75 14.775 7.75H9.25C9 7.75 8.77917 7.80833 8.5875 7.925C8.39583 8.04167 8.24167 8.21667 8.125 8.45C7.69167 9.31667 7.11667 10.0792 6.4 10.7375C5.68333 11.3958 4.71667 11.725 3.5 11.725V12C3.5 14.35 4.32917 16.3542 5.9875 18.0125C7.64583 19.6708 9.65 20.5 12 20.5ZM8.85 14.425C8.46667 14.425 8.14583 14.2958 7.8875 14.0375C7.62917 13.7792 7.5 13.4583 7.5 13.075C7.5 12.6917 7.62917 12.3708 7.8875 12.1125C8.14583 11.8542 8.46667 11.725 8.85 11.725C9.23333 11.725 9.55417 11.8542 9.8125 12.1125C10.0708 12.3708 10.2 12.6917 10.2 13.075C10.2 13.4583 10.0708 13.7792 9.8125 14.0375C9.55417 14.2958 9.23333 14.425 8.85 14.425ZM15.175 14.425C14.7917 14.425 14.4708 14.2958 14.2125 14.0375C13.9542 13.7792 13.825 13.4583 13.825 13.075C13.825 12.6917 13.9542 12.3708 14.2125 12.1125C14.4708 11.8542 14.7917 11.725 15.175 11.725C15.5583 11.725 15.8792 11.8542 16.1375 12.1125C16.3958 12.3708 16.525 12.6917 16.525 13.075C16.525 13.4583 16.3958 13.7792 16.1375 14.0375C15.8792 14.2958 15.5583 14.425 15.175 14.425Z"
        fill="#E66137" />
</svg>