<svg width="133" height="208" viewBox="0 0 133 208" fill="none" xmlns="http://www.w3.org/2000/svg">
    <g filter="url(#filter0_b_324_919)">
        <rect width="133" height="208" rx="5" fill="white" />
        <rect x="0.5" y="0.5" width="132" height="207" rx="4.5" stroke="#E66137" />
    </g>
    <g filter="url(#filter1_f_324_919)">
        <ellipse cx="69" cy="105" rx="35" ry="58" fill="#E66137" fill-opacity="0.86" />
    </g>
    <path
        d="M66.5 102C66.0075 102 65.5199 102.097 65.0649 102.285C64.61 102.474 64.1966 102.75 63.8483 103.098C63.5001 103.447 63.2239 103.86 63.0355 104.315C62.847 104.77 62.75 105.258 62.75 105.75C62.75 106.242 62.847 106.73 63.0355 107.185C63.2239 107.64 63.5001 108.053 63.8483 108.402C64.1966 108.75 64.61 109.026 65.0649 109.215C65.5199 109.403 66.0075 109.5 66.5 109.5C67.4946 109.5 68.4484 109.105 69.1517 108.402C69.8549 107.698 70.25 106.745 70.25 105.75C70.25 104.755 69.8549 103.802 69.1517 103.098C68.4484 102.395 67.4946 102 66.5 102ZM76.5 98.25H73.5C73.2841 98.2402 73.0758 98.1675 72.9006 98.0409C72.7254 97.9143 72.5909 97.7394 72.5138 97.5375L71.7375 95.2113C71.6598 95.0096 71.525 94.8349 71.3496 94.7086C71.1743 94.5823 70.9659 94.5098 70.75 94.5H62.25C61.8375 94.5 61.3925 94.82 61.2638 95.21L60.4862 97.5375C60.4089 97.7393 60.2745 97.9142 60.0993 98.0407C59.9241 98.1673 59.7159 98.24 59.5 98.25H56.5C55.125 98.25 54 99.375 54 100.75V112C54 113.375 55.125 114.5 56.5 114.5H76.5C77.875 114.5 79 113.375 79 112V100.75C79 99.375 77.875 98.25 76.5 98.25ZM66.5 112C64.8424 112 63.2527 111.342 62.0806 110.169C60.9085 108.997 60.25 107.408 60.25 105.75C60.25 104.092 60.9085 102.503 62.0806 101.331C63.2527 100.158 64.8424 99.5 66.5 99.5C68.1576 99.5 69.7473 100.158 70.9194 101.331C72.0915 102.503 72.75 104.092 72.75 105.75C72.75 107.408 72.0915 108.997 70.9194 110.169C69.7473 111.342 68.1576 112 66.5 112ZM75.875 102.25C75.6429 102.25 75.4204 102.158 75.2563 101.994C75.0922 101.83 75 101.607 75 101.375C75 101.143 75.0922 100.92 75.2563 100.756C75.4204 100.592 75.6429 100.5 75.875 100.5C76.1071 100.5 76.3296 100.592 76.4937 100.756C76.6578 100.92 76.75 101.143 76.75 101.375C76.75 101.607 76.6578 101.83 76.4937 101.994C76.3296 102.158 76.1071 102.25 75.875 102.25Z"
        fill="black" />
    <defs>
        <filter id="filter0_b_324_919" x="-4" y="-4" width="141" height="216" filterUnits="userSpaceOnUse"
            color-interpolation-filters="sRGB">
            <feFlood flood-opacity="0" result="BackgroundImageFix" />
            <feGaussianBlur in="BackgroundImageFix" stdDeviation="2" />
            <feComposite in2="SourceAlpha" operator="in" result="effect1_backgroundBlur_324_919" />
            <feBlend mode="normal" in="SourceGraphic" in2="effect1_backgroundBlur_324_919" result="shape" />
        </filter>
        <filter id="filter1_f_324_919" x="-46" y="-33" width="230" height="276" filterUnits="userSpaceOnUse"
            color-interpolation-filters="sRGB">
            <feFlood flood-opacity="0" result="BackgroundImageFix" />
            <feBlend mode="normal" in="SourceGraphic" in2="BackgroundImageFix" result="shape" />
            <feGaussianBlur stdDeviation="40" result="effect1_foregroundBlur_324_919" />
        </filter>
    </defs>
</svg>