<svg width="26" height="26" viewBox="0 0 26 26" fill="none" xmlns="http://www.w3.org/2000/svg">
    <path
        d="M11.0681 15.9574L7.8872 12.7724C7.69246 12.5774 7.45444 12.4799 7.17314 12.4799C6.89184 12.4799 6.65381 12.5774 6.45907 12.7724C6.24268 12.9891 6.13449 13.2437 6.13449 13.5362C6.13449 13.8287 6.23186 14.0724 6.42661 14.2674L10.3864 18.2324C10.5595 18.4057 10.7868 18.4924 11.0681 18.4924C11.3494 18.4924 11.5766 18.4057 11.7497 18.2324L19.5395 10.4324C19.7342 10.2374 19.8316 9.99911 19.8316 9.71745C19.8316 9.43578 19.7234 9.18662 19.507 8.96995C19.3123 8.77495 19.0689 8.67745 18.7767 8.67745C18.4846 8.67745 18.2304 8.78578 18.014 9.00245L11.0681 15.9574ZM12.9831 25.9999C11.1438 25.9999 9.43435 25.6694 7.85475 25.0086C6.27514 24.3478 4.9011 23.4324 3.73263 22.2624C2.56415 21.0924 1.64993 19.7166 0.989958 18.1349C0.329986 16.5532 0 14.8416 0 12.9999C0 11.1799 0.329986 9.47911 0.989958 7.89746C1.64993 6.3158 2.56415 4.93997 3.73263 3.76998C4.9011 2.59999 6.27514 1.67916 7.85475 1.00749C9.43435 0.335832 11.1438 0 12.9831 0C14.8007 0 16.4993 0.335832 18.0789 1.00749C19.6585 1.67916 21.0325 2.59999 22.201 3.76998C23.3695 4.93997 24.2891 6.3158 24.9599 7.89746C25.6307 9.47911 25.9661 11.1799 25.9661 12.9999C25.9661 14.8416 25.6307 16.5532 24.9599 18.1349C24.2891 19.7166 23.3695 21.0924 22.201 22.2624C21.0325 23.4324 19.6585 24.3478 18.0789 25.0086C16.4993 25.6694 14.8007 25.9999 12.9831 25.9999Z"
        fill="#E66137" />
</svg>