<svg width="19" height="19" viewBox="0 0 19 19" fill="none" xmlns="http://www.w3.org/2000/svg">
    <path
        d="M8.68856 10.4301L7.12502 8.86654C7.00627 8.74779 6.86113 8.68841 6.6896 8.68841C6.51808 8.68841 6.37294 8.74779 6.25419 8.86654C6.13544 8.98529 6.07606 9.13043 6.07606 9.30195C6.07606 9.47348 6.13544 9.61862 6.25419 9.73737L8.21356 11.6967C8.33231 11.8155 8.47415 11.8749 8.63908 11.8749C8.80401 11.8749 8.94585 11.8155 9.0646 11.6967L12.7261 8.03529C12.8316 7.92973 12.8844 7.79119 12.8844 7.61966C12.8844 7.44813 12.8316 7.30959 12.7261 7.20404C12.6205 7.09848 12.4853 7.0457 12.3203 7.0457C12.1554 7.0457 12.0202 7.09848 11.9146 7.20404L8.68856 10.4301ZM9.50002 17.3572C9.44724 17.3572 9.39776 17.3539 9.35158 17.3473C9.3054 17.3407 9.26252 17.3308 9.22294 17.3176C7.45488 16.7898 6.00349 15.7046 4.86877 14.0618C3.73405 12.4191 3.16669 10.6148 3.16669 8.64883V4.76966C3.16669 4.51897 3.23926 4.29136 3.3844 4.08685C3.52953 3.88233 3.71426 3.7339 3.93856 3.64154L9.0844 1.72174C9.22953 1.66897 9.36808 1.64258 9.50002 1.64258C9.63197 1.64258 9.77051 1.66897 9.91565 1.72174L15.0615 3.64154C15.2858 3.7339 15.4705 3.88233 15.6156 4.08685C15.7608 4.29136 15.8334 4.51897 15.8334 4.76966V8.64883C15.8334 10.6148 15.266 12.4191 14.1313 14.0618C12.9965 15.7046 11.5452 16.7898 9.7771 17.3176L9.50002 17.3572ZM9.50002 16.1697C11.0174 15.6683 12.2544 14.7216 13.211 13.3296C14.1676 11.9375 14.6459 10.3773 14.6459 8.64883V4.76966L9.50002 2.83008L4.35419 4.76966V8.64883C4.35419 10.3773 4.83249 11.9375 5.78908 13.3296C6.74568 14.7216 7.98266 15.6683 9.50002 16.1697Z"
        fill="#E66137" />
</svg>