<svg width="318" height="26" viewBox="0 0 318 26" fill="none" xmlns="http://www.w3.org/2000/svg">
    <g clip-path="url(#clip0_641_1395)">
        <path
            d="M51.5 7.71429C54.2587 7.71429 56.5 10.1476 56.5 13.1429C56.5 16.1381 54.2587 18.5714 51.5 18.5714H46.5C44.8694 18.5714 43.4163 19.4251 42.5031 20.7449C41.8956 20.2468 41.5 19.457 41.5 18.5714V11.7857C41.5 9.54032 43.1844 7.71429 45.25 7.71429H51.5ZM51.5 5H45.25C41.7981 5 39 8.03796 39 11.7857V18.5714C39 21.5694 41.2413 24 44 24C44 22.4997 45.1206 21.2857 46.5 21.2857H51.5C55.6431 21.2857 59 17.6384 59 13.1429C59 8.64732 55.6431 5 51.5 5Z"
            fill="black" />
    </g>
    <g clip-path="url(#clip1_641_1395)">
        <path
            d="M88.5 18.07C87.8033 18.07 87.18 18.3325 86.7033 18.7438L80.1675 15.1125C80.2133 14.9113 80.25 14.71 80.25 14.5C80.25 14.29 80.2133 14.0887 80.1675 13.8875L86.63 10.2913C87.125 10.7288 87.7758 11 88.5 11C90.0217 11 91.25 9.8275 91.25 8.375C91.25 6.9225 90.0217 5.75 88.5 5.75C86.9783 5.75 85.75 6.9225 85.75 8.375C85.75 8.585 85.7867 8.78625 85.8325 8.9875L79.37 12.5838C78.875 12.1463 78.2242 11.875 77.5 11.875C75.9783 11.875 74.75 13.0475 74.75 14.5C74.75 15.9525 75.9783 17.125 77.5 17.125C78.2242 17.125 78.875 16.8537 79.37 16.4162L85.8967 20.0563C85.8508 20.24 85.8233 20.4325 85.8233 20.625C85.8233 22.0338 87.0242 23.18 88.5 23.18C89.9758 23.18 91.1767 22.0338 91.1767 20.625C91.1767 19.2163 89.9758 18.07 88.5 18.07Z"
            fill="black" />
    </g>
    <path
        d="M12 23C10.6333 23 9.34167 22.7375 8.125 22.2125C6.90833 21.6875 5.84583 20.9708 4.9375 20.0625C4.02917 19.1542 3.3125 18.0917 2.7875 16.875C2.2625 15.6583 2 14.3667 2 13C2 11.6167 2.2625 10.3167 2.7875 9.1C3.3125 7.88333 4.02917 6.825 4.9375 5.925C5.84583 5.025 6.90833 4.3125 8.125 3.7875C9.34167 3.2625 10.6333 3 12 3C12.7667 3 13.5042 3.08333 14.2125 3.25C14.9208 3.41667 15.6 3.65 16.25 3.95V5.625C15.6167 5.25833 14.9458 4.97917 14.2375 4.7875C13.5292 4.59583 12.7833 4.5 12 4.5C9.65 4.5 7.64583 5.325 5.9875 6.975C4.32917 8.625 3.5 10.6333 3.5 13C3.5 15.35 4.32917 17.3542 5.9875 19.0125C7.64583 20.6708 9.65 21.5 12 21.5C14.3667 21.5 16.375 20.6708 18.025 19.0125C19.675 17.3542 20.5 15.35 20.5 13C20.5 12.4167 20.4458 11.8542 20.3375 11.3125C20.2292 10.7708 20.0667 10.25 19.85 9.75H21.45C21.6333 10.2667 21.7708 10.7917 21.8625 11.325C21.9542 11.8583 22 12.4167 22 13C22 14.3667 21.7375 15.6583 21.2125 16.875C20.6875 18.0917 19.975 19.1542 19.075 20.0625C18.175 20.9708 17.1167 21.6875 15.9 22.2125C14.6833 22.7375 13.3833 23 12 23ZM15.65 11.675C16.0333 11.675 16.3542 11.5458 16.6125 11.2875C16.8708 11.0292 17 10.7083 17 10.325C17 9.94167 16.8708 9.62083 16.6125 9.3625C16.3542 9.10417 16.0333 8.975 15.65 8.975C15.2667 8.975 14.9458 9.10417 14.6875 9.3625C14.4292 9.62083 14.3 9.94167 14.3 10.325C14.3 10.7083 14.4292 11.0292 14.6875 11.2875C14.9458 11.5458 15.2667 11.675 15.65 11.675ZM8.35 11.675C8.73333 11.675 9.05417 11.5458 9.3125 11.2875C9.57083 11.0292 9.7 10.7083 9.7 10.325C9.7 9.94167 9.57083 9.62083 9.3125 9.3625C9.05417 9.10417 8.73333 8.975 8.35 8.975C7.96667 8.975 7.64583 9.10417 7.3875 9.3625C7.12917 9.62083 7 9.94167 7 10.325C7 10.7083 7.12917 11.0292 7.3875 11.2875C7.64583 11.5458 7.96667 11.675 8.35 11.675ZM12 18.475C13.1 18.475 14.1125 18.1792 15.0375 17.5875C15.9625 16.9958 16.6333 16.1917 17.05 15.175H6.95C7.38333 16.1917 8.05833 16.9958 8.975 17.5875C9.89167 18.1792 10.9 18.475 12 18.475ZM20.25 8V5.75H18V4.25H20.25V2H21.75V4.25H24V5.75H21.75V8H20.25Z"
        fill="#E66137" />
    <path
        d="M297 5.41659C297 4.81828 297.522 4.33325 298.167 4.33325H309.833C310.478 4.33325 311 4.81828 311 5.41659V19.6424C311 20.5076 309.962 21.0237 309.186 20.5437L304.647 17.7339C304.255 17.4913 303.745 17.4913 303.353 17.7339L298.814 20.5437C298.038 21.0237 297 20.5076 297 19.6424V5.41659Z"
        fill="#E66137" />
    <defs>
        <clipPath id="clip0_641_1395">
            <rect width="20" height="19" fill="white" transform="translate(39 5)" />
        </clipPath>
        <clipPath id="clip1_641_1395">
            <rect width="22" height="21" fill="white" transform="translate(72 4)" />
        </clipPath>
    </defs>
</svg>