<svg width="24" height="28" viewBox="0 0 24 28" fill="none" xmlns="http://www.w3.org/2000/svg">
    <path
        d="M13.9616 5.8381C13.1742 5.85536 12.4237 6.23133 11.8707 6.88556C11.3177 7.53979 11.006 8.42041 11.0022 9.33923V9.93455H10.0006C5.64663 9.93455 3.20505 12.8095 2.09387 15.5521C0.986469 18.2992 0.997807 20.9977 0.997807 20.9977C0.997573 21.2365 1.06003 21.4696 1.17678 21.6657C1.29352 21.8618 1.45895 22.0115 1.6508 22.0946C1.84265 22.1777 2.05171 22.1902 2.24985 22.1305C2.44799 22.0708 2.6257 21.9417 2.75907 21.7606C2.75907 21.7606 5.46521 18.1008 10.0006 18.1008H11.0022V18.6652C11.0022 21.3946 13.7197 23.0967 15.6662 21.5799L21.6643 16.9146C22.0696 16.5902 22.4012 16.1555 22.6302 15.6481C22.8593 15.1406 22.979 14.5757 22.979 14.0022C22.979 13.4287 22.8593 12.8638 22.6302 12.3563C22.4012 11.8489 22.0696 11.4142 21.6643 11.0898L15.6662 6.4201C15.1614 6.02962 14.5671 5.82674 13.9616 5.8381ZM13.988 8.1751C14.1959 8.16628 14.3925 8.23683 14.555 8.3647L20.5569 13.03C21.1805 13.515 21.1805 14.4851 20.5569 14.9701L14.555 19.6397C13.8444 20.1909 13.0054 19.6617 13.0054 18.6652V16.9367C13.0054 16.6268 12.8998 16.3296 12.712 16.1104C12.5242 15.8913 12.2694 15.7682 12.0038 15.7682H10.0006C7.20379 15.7682 5.023 16.9146 3.51497 18.0611C3.64348 17.5408 3.68505 17.0911 3.90426 16.5487C4.79623 14.344 6.3534 12.2716 10.0006 12.2716H12.0038C12.2694 12.2716 12.5242 12.1484 12.712 11.9292C12.8998 11.7101 13.0054 11.4129 13.0054 11.103V9.33923C13.0029 9.18683 13.0264 9.03533 13.0747 8.89368C13.1229 8.75203 13.1949 8.62301 13.2864 8.51421C13.3779 8.4054 13.4871 8.319 13.6076 8.26001C13.728 8.20102 13.8574 8.17063 13.988 8.17066V8.1751Z"
        fill="white" />
</svg>