<svg width="21" height="21" viewBox="0 0 21 21" fill="none" xmlns="http://www.w3.org/2000/svg">
    <path
        d="M15.1156 15.0936C15.4948 15.0936 15.8156 14.955 16.0781 14.6779C16.3406 14.4008 16.4719 14.0727 16.4719 13.6936C16.4719 13.3144 16.3406 12.9936 16.0781 12.7311C15.8156 12.4686 15.4948 12.3373 15.1156 12.3373C14.7365 12.3373 14.4083 12.4686 14.1312 12.7311C13.8542 12.9936 13.7156 13.3144 13.7156 13.6936C13.7156 14.0727 13.8542 14.4008 14.1312 14.6779C14.4083 14.955 14.7365 15.0936 15.1156 15.0936ZM15.0938 17.8279C15.575 17.8279 16.0125 17.7258 16.4062 17.5217C16.8 17.3175 17.1354 17.0258 17.4125 16.6467C17.0333 16.4425 16.6542 16.2894 16.275 16.1873C15.8958 16.0852 15.5021 16.0342 15.0938 16.0342C14.6854 16.0342 14.288 16.0852 13.9016 16.1873C13.5151 16.2894 13.1396 16.4425 12.775 16.6467C13.0521 17.0258 13.3839 17.3175 13.7703 17.5217C14.1568 17.7258 14.5979 17.8279 15.0938 17.8279ZM15.1594 19.2498C14.0219 19.2498 13.0521 18.8451 12.25 18.0357C11.4479 17.2264 11.0469 16.2675 11.0469 15.1592C11.0469 14.0217 11.4479 13.0482 12.25 12.2389C13.0521 11.4295 14.0219 11.0248 15.1594 11.0248C16.2823 11.0248 17.2484 11.4295 18.0578 12.2389C18.8672 13.0482 19.2719 14.0217 19.2719 15.1592C19.2719 16.2675 18.8672 17.2264 18.0578 18.0357C17.2484 18.8451 16.2823 19.2498 15.1594 19.2498ZM10.5 19.1842H10.3359C10.2995 19.1842 10.2448 19.1696 10.1719 19.1404C8.31979 18.5863 6.74479 17.4196 5.44687 15.6404C4.14896 13.8613 3.5 11.8415 3.5 9.58105V5.27168C3.5 4.9946 3.58021 4.74303 3.74063 4.51699C3.90104 4.29095 4.10521 4.12689 4.35312 4.0248L10.0406 1.90293C10.201 1.8446 10.3542 1.81543 10.5 1.81543C10.6458 1.81543 10.799 1.8446 10.9594 1.90293L16.6469 4.0248C16.8948 4.12689 17.099 4.29095 17.2594 4.51699C17.4198 4.74303 17.5 4.9946 17.5 5.27168V10.2592C17.2958 10.1571 17.0771 10.066 16.8438 9.98574C16.6104 9.90553 16.3917 9.85085 16.1875 9.82168V5.27168L10.5 3.17168L4.8125 5.27168V9.58105C4.8125 10.6894 4.99115 11.7102 5.34844 12.6436C5.70573 13.5769 6.16146 14.3972 6.71563 15.1045C7.26979 15.8118 7.88229 16.3988 8.55312 16.8654C9.22396 17.3321 9.87292 17.6675 10.5 17.8717C10.5875 18.0467 10.7188 18.2436 10.8937 18.4623C11.0687 18.6811 11.2146 18.8488 11.3312 18.9654C11.1708 19.0383 11.0214 19.093 10.8828 19.1295C10.7443 19.1659 10.6167 19.1842 10.5 19.1842Z"
        fill="#E66137" />
</svg>