<svg width="23" height="24" viewBox="0 0 23 24" fill="none" xmlns="http://www.w3.org/2000/svg">
    <path
        d="M16.5312 3.75H6.46875C5.27994 3.75 4.3125 4.7595 4.3125 6V20.25C4.3125 20.5365 4.46919 20.7975 4.71572 20.9235C4.96297 21.0487 5.25622 21.018 5.47256 20.8417L11.5 15.9503L17.5274 20.8417C17.6561 20.9467 17.8121 21 17.9688 21C18.0758 21 18.1844 20.9745 18.2843 20.9235C18.5308 20.7975 18.6875 20.5365 18.6875 20.25V6C18.6875 4.7595 17.7201 3.75 16.5312 3.75ZM17.25 18.717L11.9413 14.4083C11.8119 14.3025 11.656 14.25 11.5 14.25C11.344 14.25 11.1881 14.3025 11.0587 14.4075L5.75 18.717V6C5.75 5.58675 6.07272 5.25 6.46875 5.25H16.5312C16.9273 5.25 17.25 5.58675 17.25 6V18.717Z"
        fill="black" />
</svg>