<svg width="21" height="21" viewBox="0 0 21 21" fill="none" xmlns="http://www.w3.org/2000/svg">
    <path
        d="M15.3125 17.9375V3.0625C15.7208 3.0625 16.0417 3.16823 16.275 3.37969C16.5083 3.59115 16.625 3.92292 16.625 4.375V16.625C16.625 17.0771 16.5083 17.4089 16.275 17.6203C16.0417 17.8318 15.7208 17.9375 15.3125 17.9375ZM3.0625 19.25C2.69792 19.25 2.38802 19.1224 2.13281 18.8672C1.8776 18.612 1.75 18.3021 1.75 17.9375V3.0625C1.75 2.69792 1.8776 2.38802 2.13281 2.13281C2.38802 1.8776 2.69792 1.75 3.0625 1.75H11.8125C12.1771 1.75 12.487 1.8776 12.7422 2.13281C12.9974 2.38802 13.125 2.69792 13.125 3.0625V17.9375C13.125 18.3021 12.9974 18.612 12.7422 18.8672C12.487 19.1224 12.1771 19.25 11.8125 19.25H3.0625ZM18.8125 16.6031V4.41875C19.1042 4.41875 19.3229 4.48073 19.4688 4.60469C19.6146 4.72865 19.6875 4.95833 19.6875 5.29375V15.7281C19.6875 16.0635 19.6146 16.2932 19.4688 16.4172C19.3229 16.5411 19.1042 16.6031 18.8125 16.6031ZM3.0625 17.9375H11.8125V3.0625H3.0625V17.9375Z"
        fill="#E66137" />
</svg>