<svg width="39" height="39" viewBox="0 0 39 39" fill="none" xmlns="http://www.w3.org/2000/svg">
    <path
        d="M11.375 29.25C8.66667 29.25 6.36458 28.3021 4.46875 26.4062C2.57292 24.5104 1.625 22.2083 1.625 19.5C1.625 16.7917 2.57292 14.4896 4.46875 12.5938C6.36458 10.6979 8.66667 9.75 11.375 9.75H27.625C30.3333 9.75 32.6354 10.6979 34.5312 12.5938C36.4271 14.4896 37.375 16.7917 37.375 19.5C37.375 22.2083 36.4271 24.5104 34.5312 26.4062C32.6354 28.3021 30.3333 29.25 27.625 29.25H11.375ZM11.375 26.8125H27.625C29.6562 26.8125 31.3828 26.1016 32.8047 24.6797C34.2266 23.2578 34.9375 21.5312 34.9375 19.5C34.9375 17.4688 34.2266 15.7422 32.8047 14.3203C31.3828 12.8984 29.6562 12.1875 27.625 12.1875H11.375C9.34375 12.1875 7.61719 12.8984 6.19531 14.3203C4.77344 15.7422 4.0625 17.4688 4.0625 19.5C4.0625 21.5312 4.77344 23.2578 6.19531 24.6797C7.61719 26.1016 9.34375 26.8125 11.375 26.8125ZM27.6656 23.6031C28.8031 23.6031 29.7714 23.2036 30.5703 22.4047C31.3693 21.6057 31.7687 20.6375 31.7687 19.5C31.7687 18.3625 31.3693 17.3943 30.5703 16.5953C29.7714 15.7964 28.8031 15.3969 27.6656 15.3969C26.5281 15.3969 25.5599 15.7964 24.7609 16.5953C23.962 17.3943 23.5625 18.3625 23.5625 19.5C23.5625 20.6375 23.962 21.6057 24.7609 22.4047C25.5599 23.2036 26.5281 23.6031 27.6656 23.6031Z"
        fill="#E66137" />
</svg>