<svg width="20" height="20" viewBox="0 0 20 20" fill="none" xmlns="http://www.w3.org/2000/svg">
    <path
        d="M10.001 7.80005C9.71201 7.80005 9.4258 7.85698 9.15876 7.96759C8.89172 8.0782 8.64909 8.24033 8.44471 8.44471C8.24032 8.64909 8.0782 8.89172 7.96759 9.15876C7.85698 9.4258 7.80005 9.71201 7.80005 10.001C7.80005 10.2901 7.85698 10.5763 7.96759 10.8433C8.0782 11.1104 8.24032 11.353 8.44471 11.5574C8.64909 11.7618 8.89172 11.9239 9.15876 12.0345C9.4258 12.1451 9.71201 12.202 10.001 12.202C10.5848 12.2019 11.1446 11.9699 11.5572 11.557C11.9699 11.1442 12.2017 10.5843 12.2015 10.0005C12.2014 9.41681 11.9694 8.85703 11.5565 8.44435C11.1437 8.03168 10.5838 7.79992 10 7.80005H10.001ZM3.00105 7.80005C2.71201 7.80005 2.4258 7.85698 2.15876 7.96759C1.89173 8.0782 1.64909 8.24033 1.44471 8.44471C1.24033 8.64909 1.0782 8.89172 0.96759 9.15876C0.856979 9.4258 0.800049 9.71201 0.800049 10.001C0.800049 10.2901 0.856979 10.5763 0.96759 10.8433C1.0782 11.1104 1.24033 11.353 1.44471 11.5574C1.64909 11.7618 1.89173 11.9239 2.15876 12.0345C2.4258 12.1451 2.71201 12.202 3.00105 12.202C3.58479 12.2019 4.14457 11.9699 4.55724 11.557C4.96992 11.1442 5.20168 10.5843 5.20155 10.0005C5.20142 9.41681 4.9694 8.85703 4.55654 8.44435C4.14368 8.03168 3.58379 7.79992 3.00005 7.80005H3.00105ZM17.001 7.80005C16.712 7.80005 16.4258 7.85698 16.1588 7.96759C15.8917 8.0782 15.6491 8.24033 15.4447 8.44471C15.2403 8.64909 15.0782 8.89172 14.9676 9.15876C14.857 9.4258 14.8 9.71201 14.8 10.001C14.8 10.2901 14.857 10.5763 14.9676 10.8433C15.0782 11.1104 15.2403 11.353 15.4447 11.5574C15.6491 11.7618 15.8917 11.9239 16.1588 12.0345C16.4258 12.1451 16.712 12.202 17.001 12.202C17.5848 12.2019 18.1446 11.9699 18.5572 11.557C18.9699 11.1442 19.2017 10.5843 19.2015 10.0005C19.2014 9.41681 18.9694 8.85703 18.5565 8.44435C18.1437 8.03168 17.5838 7.79992 17 7.80005H17.001Z"
        fill="#E66137" />
</svg>