<svg width="20" height="20" viewBox="0 0 20 20" fill="none" xmlns="http://www.w3.org/2000/svg">
    <path
        d="M10.001 7.80005C9.71195 7.80005 9.42574 7.85698 9.1587 7.96759C8.89166 8.0782 8.64903 8.24033 8.44465 8.44471C8.24026 8.64909 8.07814 8.89172 7.96753 9.15876C7.85692 9.4258 7.79999 9.71201 7.79999 10.001C7.79999 10.2901 7.85692 10.5763 7.96753 10.8433C8.07814 11.1104 8.24026 11.353 8.44465 11.5574C8.64903 11.7618 8.89166 11.9239 9.1587 12.0345C9.42574 12.1451 9.71195 12.202 10.001 12.202C10.5847 12.2019 11.1445 11.9699 11.5572 11.557C11.9699 11.1442 12.2016 10.5843 12.2015 10.0005C12.2014 9.41681 11.9693 8.85703 11.5565 8.44435C11.1436 8.03168 10.5837 7.79992 9.99999 7.80005H10.001ZM3.00099 7.80005C2.71195 7.80005 2.42574 7.85698 2.1587 7.96759C1.89166 8.0782 1.64903 8.24033 1.44465 8.44471C1.24026 8.64909 1.07814 8.89172 0.967529 9.15876C0.856918 9.4258 0.799988 9.71201 0.799988 10.001C0.799988 10.2901 0.856918 10.5763 0.967529 10.8433C1.07814 11.1104 1.24026 11.353 1.44465 11.5574C1.64903 11.7618 1.89166 11.9239 2.1587 12.0345C2.42574 12.1451 2.71195 12.202 3.00099 12.202C3.58473 12.2019 4.14451 11.9699 4.55718 11.557C4.96986 11.1442 5.20162 10.5843 5.20149 10.0005C5.20135 9.41681 4.96934 8.85703 4.55648 8.44435C4.14362 8.03168 3.58373 7.79992 2.99999 7.80005H3.00099ZM17.001 7.80005C16.7119 7.80005 16.4257 7.85698 16.1587 7.96759C15.8917 8.0782 15.649 8.24033 15.4446 8.44471C15.2403 8.64909 15.0781 8.89172 14.9675 9.15876C14.8569 9.4258 14.8 9.71201 14.8 10.001C14.8 10.2901 14.8569 10.5763 14.9675 10.8433C15.0781 11.1104 15.2403 11.353 15.4446 11.5574C15.649 11.7618 15.8917 11.9239 16.1587 12.0345C16.4257 12.1451 16.7119 12.202 17.001 12.202C17.5847 12.2019 18.1445 11.9699 18.5572 11.557C18.9699 11.1442 19.2016 10.5843 19.2015 10.0005C19.2014 9.41681 18.9693 8.85703 18.5565 8.44435C18.1436 8.03168 17.5837 7.79992 17 7.80005H17.001Z"
        fill="black" />
</svg>